<svg width="32" height="32" viewBox="0 0 32 32" fill="none" xmlns="http://www.w3.org/2000/svg">
<path fill-rule="evenodd" clip-rule="evenodd" d="M16.0002 2.6665C16.0002 2.6665 15.1207 3.10624 13.8668 3.95413C10.754 6.05914 5.3335 10.6798 5.3335 17.3332C5.3335 23.2242 10.1091 27.9998 16.0002 27.9998C21.8912 27.9998 26.6668 23.2242 26.6668 17.3332C26.6668 14.5504 25.7186 12.1232 24.3876 10.087C23.8979 9.33775 23.3563 8.64145 22.7911 7.99984C22.7498 7.95294 22.7084 7.90634 22.6668 7.86003V7.99984C22.6668 8.84037 22.3557 9.60823 21.8424 10.1946C21.2314 10.8924 20.3339 11.3332 19.3335 11.3332C17.4925 11.3332 16.0002 9.84079 16.0002 7.99984V2.6665ZM21.1218 24.1592C21.2596 23.6856 21.3335 23.1847 21.3335 22.6665C21.3335 17.9998 16.0002 15.3332 16.0002 15.3332C16.0002 15.3332 10.6668 17.9998 10.6668 22.6665C10.6668 23.1847 10.7407 23.6856 10.8785 24.1593C8.80681 22.6023 7.46683 20.1242 7.46683 17.3332C7.46683 13.5188 9.65042 10.3769 12.1259 8.05618C12.7161 7.50288 13.3082 7.01058 13.8668 6.58228V7.99984C13.8668 11.019 16.3143 13.4665 19.3335 13.4665C20.7726 13.4665 22.0819 12.9104 23.0581 12.0013C23.9585 13.5904 24.5335 15.3725 24.5335 17.3332C24.5335 20.1242 23.1935 22.6023 21.1218 24.1592ZM19.2002 22.6665C19.2002 24.4338 17.7675 25.8665 16.0002 25.8665C14.2329 25.8665 12.8002 24.4338 12.8002 22.6665C12.8002 21.1855 13.6504 19.8769 14.7926 18.8062C15.2115 18.4134 15.6352 18.0865 16.0002 17.8323C16.3651 18.0865 16.7888 18.4134 17.2078 18.8062C18.3499 19.8769 19.2002 21.1855 19.2002 22.6665Z" fill="#4F4F4F"/>
</svg>
