<svg width="72" height="72" viewBox="0 0 72 72" fill="none" xmlns="http://www.w3.org/2000/svg">
<rect x="0.5" y="0.5" width="71" height="71" rx="23.5" fill="#003351"/>
<path fill-rule="evenodd" clip-rule="evenodd" d="M29.75 25.375C30.7855 25.375 31.625 24.5355 31.625 23.5C31.625 23.4009 31.5996 23.211 31.5333 22.9204C31.4695 22.641 31.3764 22.3043 31.2616 21.9281C31.0321 21.1763 30.7241 20.2943 30.4133 19.4476C30.1816 18.8165 29.9497 18.2088 29.75 17.6948C29.5503 18.2088 29.3184 18.8165 29.0867 19.4476C28.7759 20.2943 28.4679 21.1763 28.2384 21.9281C28.1236 22.3043 28.0305 22.641 27.9667 22.9204C27.9004 23.211 27.875 23.4009 27.875 23.5C27.875 24.5355 28.7145 25.375 29.75 25.375ZM29.4138 16.8397C28.7319 18.5652 27.25 22.437 27.25 23.5C27.25 24.8807 28.3693 26 29.75 26C31.1307 26 32.25 24.8807 32.25 23.5C32.25 22.437 30.7681 18.5652 30.0862 16.8397C29.8824 16.324 29.75 16 29.75 16C29.75 16 29.6176 16.324 29.4138 16.8397Z" fill="white"/>
<path fill-rule="evenodd" clip-rule="evenodd" d="M43.5 41.625C44.5355 41.625 45.375 40.7855 45.375 39.75C45.375 39.6509 45.3496 39.461 45.2833 39.1704C45.2195 38.891 45.1264 38.5543 45.0116 38.1781C44.7821 37.4263 44.4741 36.5443 44.1633 35.6976C43.9316 35.0665 43.6997 34.4588 43.5 33.9448C43.3003 34.4588 43.0684 35.0665 42.8367 35.6976C42.5259 36.5443 42.2179 37.4263 41.9884 38.1781C41.8736 38.5543 41.7805 38.891 41.7167 39.1704C41.6504 39.461 41.625 39.6509 41.625 39.75C41.625 40.7855 42.4645 41.625 43.5 41.625ZM43.1638 33.0897C42.4819 34.8152 41 38.687 41 39.75C41 41.1307 42.1193 42.25 43.5 42.25C44.8807 42.25 46 41.1307 46 39.75C46 38.687 44.5181 34.8152 43.8362 33.0897C43.6324 32.574 43.5 32.25 43.5 32.25C43.5 32.25 43.3676 32.574 43.1638 33.0897Z" fill="white"/>
<path fill-rule="evenodd" clip-rule="evenodd" d="M29.75 25.375C30.0952 25.375 30.375 25.0952 30.375 24.75C30.375 24.7501 30.375 24.7502 30.375 24.7502C30.375 24.7502 30.3749 24.7454 30.374 24.735C30.3729 24.7237 30.3711 24.7081 30.368 24.6879C30.3618 24.6469 30.3517 24.5944 30.337 24.5298C30.3074 24.4001 30.2631 24.2395 30.2069 24.0553C30.0946 23.6874 29.9429 23.2526 29.7883 22.8315C29.7755 22.7967 29.7628 22.7621 29.75 22.7276C29.7372 22.7621 29.7245 22.7967 29.7117 22.8315C29.5571 23.2526 29.4054 23.6874 29.2931 24.0553C29.2369 24.2395 29.1926 24.4001 29.163 24.5298C29.1483 24.5944 29.1382 24.6469 29.132 24.6879C29.1289 24.7081 29.1271 24.7237 29.126 24.735C29.1251 24.7454 29.125 24.7502 29.125 24.7502C29.125 24.7502 29.125 24.7501 29.125 24.75C29.125 25.0952 29.4048 25.375 29.75 25.375ZM29.4147 21.8478C29.0445 22.8067 28.5 24.2944 28.5 24.75C28.5 25.4404 29.0596 26 29.75 26C30.4404 26 31 25.4404 31 24.75C31 24.2944 30.4555 22.8067 30.0853 21.8478C29.8945 21.3537 29.75 21 29.75 21C29.75 21 29.6055 21.3537 29.4147 21.8478Z" fill="white"/>
<path fill-rule="evenodd" clip-rule="evenodd" d="M43.5 41.625C43.8452 41.625 44.125 41.3452 44.125 41C44.125 41.0001 44.125 41.0002 44.125 41.0002C44.125 41.0002 44.1249 40.9954 44.124 40.985C44.1229 40.9737 44.1211 40.9581 44.118 40.9379C44.1118 40.8969 44.1017 40.8444 44.087 40.7798C44.0574 40.6501 44.0131 40.4895 43.9569 40.3053C43.8446 39.9374 43.6929 39.5026 43.5383 39.0815C43.5255 39.0467 43.5128 39.0121 43.5 38.9776C43.4872 39.0121 43.4745 39.0467 43.4617 39.0815C43.3071 39.5026 43.1554 39.9374 43.0431 40.3053C42.9869 40.4895 42.9426 40.6501 42.913 40.7798C42.8983 40.8444 42.8882 40.8969 42.882 40.9379C42.8789 40.9581 42.8771 40.9737 42.876 40.985C42.8751 40.9954 42.875 41.0002 42.875 41.0002C42.875 41.0002 42.875 41.0001 42.875 41C42.875 41.3452 43.1548 41.625 43.5 41.625ZM43.1647 38.0978C42.7945 39.0567 42.25 40.5444 42.25 41C42.25 41.6904 42.8096 42.25 43.5 42.25C44.1904 42.25 44.75 41.6904 44.75 41C44.75 40.5444 44.2055 39.0567 43.8353 38.0978C43.6445 37.6037 43.5 37.25 43.5 37.25C43.5 37.25 43.3555 37.6037 43.1647 38.0978Z" fill="white"/>
<mask id="path-6-inside-1_281_5313" fill="white">
<path fill-rule="evenodd" clip-rule="evenodd" d="M47.25 47.5625V43.8125C47.25 43.6399 47.1101 43.5 46.9375 43.5C46.7649 43.5 46.625 43.6399 46.625 43.8125V47.5625C46.625 47.7351 46.7649 47.875 46.9375 47.875C47.1101 47.875 47.25 47.7351 47.25 47.5625ZM46.625 49.0937V49.4375C46.625 50.3004 45.9254 51 45.0625 51C44.1996 51 43.5 50.3004 43.5 49.4375V43.8125C43.5 42.9496 44.1996 42.25 45.0625 42.25C45.4143 42.25 45.7389 42.3662 46 42.5624C46.2611 42.3662 46.5857 42.25 46.9375 42.25C47.8004 42.25 48.5 42.9496 48.5 43.8125V47.5625C48.5 48.4254 47.8004 49.125 46.9375 49.125C46.8305 49.125 46.726 49.1142 46.625 49.0937ZM45.375 43.8125C45.375 43.6399 45.2351 43.5 45.0625 43.5C44.8899 43.5 44.75 43.6399 44.75 43.8125V49.4375C44.75 49.6101 44.8899 49.75 45.0625 49.75C45.2351 49.75 45.375 49.6101 45.375 49.4375V47.5625V43.8125ZM42.875 43.5C42.875 43.1548 42.5952 42.875 42.25 42.875H35.3723C34.6819 42.875 34.125 43.4346 34.125 44.125V55.375C34.125 55.7202 34.4048 56 34.75 56H52.25C52.5952 56 52.875 55.7202 52.875 55.375V44.125C52.875 43.4346 52.3154 42.875 51.6251 42.875H49.75C49.4048 42.875 49.125 43.1548 49.125 43.5C49.125 43.8452 49.4048 44.125 49.75 44.125H51.3125C51.4851 44.125 51.625 44.2649 51.625 44.4375V54.4375C51.625 54.6101 51.4851 54.75 51.3125 54.75H35.6875C35.5149 54.75 35.375 54.6101 35.375 54.4375V44.4375C35.375 44.2649 35.5149 44.125 35.6875 44.125H42.25C42.5952 44.125 42.875 43.8452 42.875 43.5Z"/>
</mask>
<path fill-rule="evenodd" clip-rule="evenodd" d="M47.25 47.5625V43.8125C47.25 43.6399 47.1101 43.5 46.9375 43.5C46.7649 43.5 46.625 43.6399 46.625 43.8125V47.5625C46.625 47.7351 46.7649 47.875 46.9375 47.875C47.1101 47.875 47.25 47.7351 47.25 47.5625ZM46.625 49.0937V49.4375C46.625 50.3004 45.9254 51 45.0625 51C44.1996 51 43.5 50.3004 43.5 49.4375V43.8125C43.5 42.9496 44.1996 42.25 45.0625 42.25C45.4143 42.25 45.7389 42.3662 46 42.5624C46.2611 42.3662 46.5857 42.25 46.9375 42.25C47.8004 42.25 48.5 42.9496 48.5 43.8125V47.5625C48.5 48.4254 47.8004 49.125 46.9375 49.125C46.8305 49.125 46.726 49.1142 46.625 49.0937ZM45.375 43.8125C45.375 43.6399 45.2351 43.5 45.0625 43.5C44.8899 43.5 44.75 43.6399 44.75 43.8125V49.4375C44.75 49.6101 44.8899 49.75 45.0625 49.75C45.2351 49.75 45.375 49.6101 45.375 49.4375V47.5625V43.8125ZM42.875 43.5C42.875 43.1548 42.5952 42.875 42.25 42.875H35.3723C34.6819 42.875 34.125 43.4346 34.125 44.125V55.375C34.125 55.7202 34.4048 56 34.75 56H52.25C52.5952 56 52.875 55.7202 52.875 55.375V44.125C52.875 43.4346 52.3154 42.875 51.6251 42.875H49.75C49.4048 42.875 49.125 43.1548 49.125 43.5C49.125 43.8452 49.4048 44.125 49.75 44.125H51.3125C51.4851 44.125 51.625 44.2649 51.625 44.4375V54.4375C51.625 54.6101 51.4851 54.75 51.3125 54.75H35.6875C35.5149 54.75 35.375 54.6101 35.375 54.4375V44.4375C35.375 44.2649 35.5149 44.125 35.6875 44.125H42.25C42.5952 44.125 42.875 43.8452 42.875 43.5Z" fill="white"/>
<path d="M46.625 49.0937L47.0229 47.1337L44.625 46.647V49.0937H46.625ZM46 42.5624L44.7988 44.1615L46 45.0637L47.2012 44.1615L46 42.5624ZM45.25 43.8125V47.5625H49.25V43.8125H45.25ZM46.9375 45.5C46.0055 45.5 45.25 44.7445 45.25 43.8125H49.25C49.25 42.5353 48.2147 41.5 46.9375 41.5V45.5ZM48.625 43.8125C48.625 44.7445 47.8695 45.5 46.9375 45.5V41.5C45.6603 41.5 44.625 42.5353 44.625 43.8125H48.625ZM48.625 47.5625V43.8125H44.625V47.5625H48.625ZM46.9375 45.875C47.8695 45.875 48.625 46.6305 48.625 47.5625H44.625C44.625 48.8397 45.6603 49.875 46.9375 49.875V45.875ZM45.25 47.5625C45.25 46.6305 46.0055 45.875 46.9375 45.875V49.875C48.2147 49.875 49.25 48.8397 49.25 47.5625H45.25ZM48.625 49.4375V49.0937H44.625V49.4375H48.625ZM45.0625 53C47.03 53 48.625 51.405 48.625 49.4375H44.625C44.625 49.1959 44.8209 49 45.0625 49V53ZM41.5 49.4375C41.5 51.405 43.095 53 45.0625 53V49C45.3041 49 45.5 49.1959 45.5 49.4375H41.5ZM41.5 43.8125V49.4375H45.5V43.8125H41.5ZM45.0625 40.25C43.095 40.25 41.5 41.845 41.5 43.8125H45.5C45.5 44.0541 45.3041 44.25 45.0625 44.25V40.25ZM47.2012 40.9633C46.6056 40.5159 45.8622 40.25 45.0625 40.25V44.25C44.9663 44.25 44.8722 44.2166 44.7988 44.1615L47.2012 40.9633ZM47.2012 44.1615C47.1278 44.2166 47.0337 44.25 46.9375 44.25V40.25C46.1378 40.25 45.3944 40.5159 44.7988 40.9633L47.2012 44.1615ZM46.9375 44.25C46.6959 44.25 46.5 44.0541 46.5 43.8125H50.5C50.5 41.845 48.905 40.25 46.9375 40.25V44.25ZM46.5 43.8125V47.5625H50.5V43.8125H46.5ZM46.5 47.5625C46.5 47.3209 46.6959 47.125 46.9375 47.125V51.125C48.905 51.125 50.5 49.53 50.5 47.5625H46.5ZM46.9375 47.125C46.9649 47.125 46.9936 47.1278 47.0229 47.1337L46.2271 51.0538C46.4583 51.1007 46.6961 51.125 46.9375 51.125V47.125ZM47.375 43.8125C47.375 42.5353 46.3397 41.5 45.0625 41.5V45.5C44.1305 45.5 43.375 44.7445 43.375 43.8125H47.375ZM45.0625 41.5C43.7853 41.5 42.75 42.5353 42.75 43.8125H46.75C46.75 44.7445 45.9945 45.5 45.0625 45.5V41.5ZM42.75 43.8125V49.4375H46.75V43.8125H42.75ZM42.75 49.4375C42.75 50.7147 43.7853 51.75 45.0625 51.75V47.75C45.9945 47.75 46.75 48.5055 46.75 49.4375H42.75ZM45.0625 51.75C46.3397 51.75 47.375 50.7147 47.375 49.4375H43.375C43.375 48.5055 44.1305 47.75 45.0625 47.75V51.75ZM47.375 49.4375V47.5625H43.375V49.4375H47.375ZM47.375 47.5625V43.8125H43.375V47.5625H47.375ZM42.25 44.875C41.4906 44.875 40.875 44.2594 40.875 43.5H44.875C44.875 42.0503 43.6997 40.875 42.25 40.875V44.875ZM35.3723 44.875H42.25V40.875H35.3723V44.875ZM36.125 44.125C36.125 44.5335 35.7922 44.875 35.3723 44.875V40.875C33.5717 40.875 32.125 42.3357 32.125 44.125H36.125ZM36.125 55.375V44.125H32.125V55.375H36.125ZM34.75 54C35.5094 54 36.125 54.6156 36.125 55.375H32.125C32.125 56.8247 33.3003 58 34.75 58V54ZM52.25 54H34.75V58H52.25V54ZM50.875 55.375C50.875 54.6156 51.4906 54 52.25 54V58C53.6997 58 54.875 56.8247 54.875 55.375H50.875ZM50.875 44.125V55.375H54.875V44.125H50.875ZM51.6251 44.875C51.2107 44.875 50.875 44.539 50.875 44.125H54.875C54.875 42.3303 53.4202 40.875 51.6251 40.875V44.875ZM49.75 44.875H51.6251V40.875H49.75V44.875ZM51.125 43.5C51.125 44.2594 50.5094 44.875 49.75 44.875V40.875C48.3003 40.875 47.125 42.0503 47.125 43.5H51.125ZM49.75 42.125C50.5094 42.125 51.125 42.7406 51.125 43.5H47.125C47.125 44.9497 48.3003 46.125 49.75 46.125V42.125ZM51.3125 42.125H49.75V46.125H51.3125V42.125ZM53.625 44.4375C53.625 43.1603 52.5897 42.125 51.3125 42.125V46.125C50.3805 46.125 49.625 45.3695 49.625 44.4375H53.625ZM53.625 54.4375V44.4375H49.625V54.4375H53.625ZM51.3125 56.75C52.5897 56.75 53.625 55.7147 53.625 54.4375H49.625C49.625 53.5055 50.3805 52.75 51.3125 52.75V56.75ZM35.6875 56.75H51.3125V52.75H35.6875V56.75ZM33.375 54.4375C33.375 55.7147 34.4103 56.75 35.6875 56.75V52.75C36.6195 52.75 37.375 53.5055 37.375 54.4375H33.375ZM33.375 44.4375V54.4375H37.375V44.4375H33.375ZM35.6875 42.125C34.4103 42.125 33.375 43.1603 33.375 44.4375H37.375C37.375 45.3695 36.6195 46.125 35.6875 46.125V42.125ZM42.25 42.125H35.6875V46.125H42.25V42.125ZM40.875 43.5C40.875 42.7406 41.4906 42.125 42.25 42.125V46.125C43.6997 46.125 44.875 44.9497 44.875 43.5H40.875Z" fill="white" mask="url(#path-6-inside-1_281_5313)"/>
<path fill-rule="evenodd" clip-rule="evenodd" d="M39.117 32.3819L39.1232 32.2982C39.1244 32.2824 39.125 32.2664 39.125 32.25V30.375C39.125 28.9943 38.0057 27.875 36.625 27.875H22.875C21.4943 27.875 20.375 28.9943 20.375 30.375V32.875V34.125V36C20.375 36.3452 20.6548 36.625 21 36.625C21.3452 36.625 21.625 36.3452 21.625 36V34.125V33.5C21.625 33.1548 21.9048 32.875 22.25 32.875C22.5952 32.875 22.875 33.1548 22.875 33.5V34.125V36V37.25C22.875 37.5952 23.1548 37.875 23.5 37.875C23.8452 37.875 24.125 37.5952 24.125 37.25V33.5C24.125 32.4645 24.9645 31.625 26 31.625C27.0355 31.625 27.875 32.4645 27.875 33.5V41.625C27.875 41.7976 28.0149 41.9375 28.1875 41.9375C28.3601 41.9375 28.5 41.7976 28.5 41.625V32.25C28.5 30.1789 30.1789 28.5 32.25 28.5C34.3211 28.5 36 30.1789 36 32.25C36 32.2664 36.0006 32.2824 36.0018 32.2981L36.008 32.3819L36.0029 32.4657C36.001 32.4976 36 32.5299 36 32.5625C36 33.4254 36.6996 34.125 37.5625 34.125C38.4254 34.125 39.125 33.4254 39.125 32.5625C39.125 32.5299 39.124 32.4976 39.1221 32.4657L39.117 32.3819ZM19.125 30.375V34.125V36C19.125 37.0356 19.9645 37.875 21 37.875C21.2439 37.875 21.4769 37.8285 21.6907 37.7437C21.9074 38.5397 22.6353 39.125 23.5 39.125C24.5355 39.125 25.375 38.2855 25.375 37.25V33.5C25.375 33.1548 25.6548 32.875 26 32.875C26.3452 32.875 26.625 33.1548 26.625 33.5V41.625C26.625 42.4879 27.3246 43.1875 28.1875 43.1875C29.0504 43.1875 29.75 42.4879 29.75 41.625V32.25C29.75 30.8693 30.8693 29.75 32.25 29.75C33.6307 29.75 34.75 30.8693 34.75 32.25C34.75 32.2972 34.7517 32.3441 34.7552 32.3904C34.7517 32.4473 34.75 32.5047 34.75 32.5625C34.75 34.1158 36.0092 35.375 37.5625 35.375C39.1158 35.375 40.375 34.1158 40.375 32.5625C40.375 32.5047 40.3733 32.4473 40.3698 32.3904C40.3733 32.3441 40.375 32.2972 40.375 32.25V30.375C40.375 28.3039 38.6961 26.625 36.625 26.625H22.875C20.8039 26.625 19.125 28.3039 19.125 30.375ZM37.875 41.625C37.875 41.9702 38.1548 42.25 38.5 42.25C38.8452 42.25 39.125 41.9702 39.125 41.625V36.625C39.125 36.2798 38.8452 36 38.5 36C38.1548 36 37.875 36.2798 37.875 36.625V41.625ZM21.625 44.75V39.125C21.625 38.7798 21.3452 38.5 21 38.5C20.6548 38.5 20.375 38.7798 20.375 39.125V43.5V43.8125L20.375 53.5C20.375 54.1904 20.9346 54.75 21.625 54.75H32.875C33.2202 54.75 33.5 54.4702 33.5 54.125C33.5 53.7798 33.2202 53.5 32.875 53.5H21.9375C21.7649 53.5 21.625 53.3601 21.625 53.1875V46V44.75Z" fill="white"/>
<rect x="0.5" y="0.5" width="71" height="71" rx="23.5" stroke="#004B74"/>
</svg>
