<svg width="80" height="80" viewBox="0 0 80 80" fill="none" xmlns="http://www.w3.org/2000/svg">
<circle cx="40" cy="30" r="30" fill="white"/>
<circle cx="40" cy="30" r="30" fill="#374E61" fill-opacity="0.06"/>
<circle cx="40" cy="30" r="20" fill="white"/>
<circle cx="40" cy="30" r="20" fill="#374E61" fill-opacity="0.1"/>
<circle cx="40" cy="30" r="12.5" fill="white"/>
<circle cx="40" cy="30" r="12.5" fill="#374E61" fill-opacity="0.14"/>
<rect x="27.5" y="41.25" width="25" height="38.75" fill="#001D32"/>
<path opacity="0.2" d="M27.52 42.3999C31.9383 42.3999 35.52 45.9816 35.52 50.3999V79.9999H27.52V42.3999Z" fill="white"/>
<path d="M46.25 32.5C46.25 35.9518 43.4518 38.75 40 38.75C36.5482 38.75 33.75 35.9518 33.75 32.5C33.75 29.0482 36.5482 19.375 40 19.375C43.4518 19.375 46.25 29.0482 46.25 32.5Z" fill="white"/>
<path d="M46.25 32.5C46.25 35.9518 43.4518 38.75 40 38.75C36.5482 38.75 33.75 35.9518 33.75 32.5C33.75 29.0482 36.5482 19.375 40 19.375C43.4518 19.375 46.25 29.0482 46.25 32.5Z" fill="#374E61" fill-opacity="0.4"/>
<path d="M43.75 34.125C43.75 36.1961 42.0711 37.875 40 37.875C37.9289 37.875 36.25 36.1961 36.25 34.125C36.25 32.0539 37.9289 26.25 40 26.25C42.0711 26.25 43.75 32.0539 43.75 34.125Z" fill="#001D32"/>
<path d="M39.375 36.875C39.375 36.5298 39.6548 36.25 40 36.25L-nan -nanL40 36.25C40.3452 36.25 40.625 36.5298 40.625 36.875V41.25H39.375V36.875Z" fill="white"/>
<path d="M39.375 36.875C39.375 36.5298 39.6548 36.25 40 36.25L-nan -nanL40 36.25C40.3452 36.25 40.625 36.5298 40.625 36.875V41.25H39.375V36.875Z" fill="#374E61" fill-opacity="0.36"/>
<path d="M17.5 60C17.5 57.2386 19.7386 55 22.5 55L36.875 55C38.6009 55 40 56.3992 40 58.125C40 59.8509 38.6009 61.2501 36.875 61.2501H17.5V60Z" fill="white"/>
<path d="M17.5 60C17.5 57.2386 19.7386 55 22.5 55L36.875 55C38.6009 55 40 56.3992 40 58.125C40 59.8509 38.6009 61.2501 36.875 61.2501H17.5V60Z" fill="#374E61" fill-opacity="0.1"/>
<path d="M17.5 61.25H36.875C38.6009 61.25 40 62.6491 40 64.375L-nan -nanL40 64.375C40 66.1009 38.6009 67.5 36.875 67.5H17.5V61.25Z" fill="white"/>
<path d="M17.5 61.25H36.875C38.6009 61.25 40 62.6491 40 64.375L-nan -nanL40 64.375C40 66.1009 38.6009 67.5 36.875 67.5H17.5V61.25Z" fill="#374E61" fill-opacity="0.1"/>
<path d="M17.5 67.5H36.875C38.6009 67.5 40 68.8991 40 70.625C40 72.3509 38.6009 73.75 36.875 73.75H17.5V67.5Z" fill="white"/>
<path d="M17.5 67.5H36.875C38.6009 67.5 40 68.8991 40 70.625C40 72.3509 38.6009 73.75 36.875 73.75H17.5V67.5Z" fill="#374E61" fill-opacity="0.1"/>
<path d="M17.5 73.75H36.875C38.6009 73.75 40 75.1491 40 76.875C40 78.6009 38.6009 80 36.875 80H20.9177C19.0302 80 17.5 78.4698 17.5 76.5823V73.75Z" fill="white"/>
<path d="M17.5 73.75H36.875C38.6009 73.75 40 75.1491 40 76.875C40 78.6009 38.6009 80 36.875 80H20.9177C19.0302 80 17.5 78.4698 17.5 76.5823V73.75Z" fill="#374E61" fill-opacity="0.1"/>
<path fill-rule="evenodd" clip-rule="evenodd" d="M44.375 55C42.6491 55 41.25 56.3991 41.25 58.125C41.25 59.8509 42.6491 61.25 44.375 61.25C42.6491 61.25 41.25 62.6491 41.25 64.375C41.25 66.1009 42.6491 67.5 44.375 67.5C42.6491 67.5 41.25 68.8991 41.25 70.625C41.25 72.3509 42.6491 73.75 44.375 73.75C42.6491 73.75 41.25 75.1491 41.25 76.875C41.25 78.6009 42.6491 80 44.375 80H58.75C61.5114 80 63.75 77.7614 63.75 75V73.75V67.5V61.25V60C63.75 57.2386 61.5114 55 58.75 55H44.375Z" fill="white"/>
<path fill-rule="evenodd" clip-rule="evenodd" d="M44.375 55C42.6491 55 41.25 56.3991 41.25 58.125C41.25 59.8509 42.6491 61.25 44.375 61.25C42.6491 61.25 41.25 62.6491 41.25 64.375C41.25 66.1009 42.6491 67.5 44.375 67.5C42.6491 67.5 41.25 68.8991 41.25 70.625C41.25 72.3509 42.6491 73.75 44.375 73.75C42.6491 73.75 41.25 75.1491 41.25 76.875C41.25 78.6009 42.6491 80 44.375 80H58.75C61.5114 80 63.75 77.7614 63.75 75V73.75V67.5V61.25V60C63.75 57.2386 61.5114 55 58.75 55H44.375Z" fill="#374E61" fill-opacity="0.1"/>
<path d="M42.5 57.5C42.5 56.1193 43.8214 55 45.4514 55H59.0278C61.6358 55 63.75 56.7909 63.75 59V73.75C63.75 76.5114 61.5114 78.75 58.75 78.75H45.4514C43.8214 78.75 42.5 77.6307 42.5 76.25C42.5 74.8693 43.8214 73.75 45.4514 73.75H55.375C55.7202 73.75 56 73.4702 56 73.125C56 72.7798 55.7202 72.5 55.375 72.5H45.4514C43.8214 72.5 42.5 71.3807 42.5 70C42.5 68.6193 43.8214 67.5 45.4514 67.5H55.375C55.7202 67.5 56 67.2202 56 66.875C56 66.5298 55.7202 66.25 55.375 66.25H45.4514C43.8214 66.25 42.5 65.1307 42.5 63.75C42.5 62.3693 43.8214 61.25 45.4514 61.25H55.375C55.7202 61.25 56 60.9702 56 60.625C56 60.2798 55.7202 60 55.375 60H45.4514C43.8214 60 42.5 58.8807 42.5 57.5Z" fill="white"/>
<path d="M42.5 57.5C42.5 56.1193 43.8214 55 45.4514 55H59.0278C61.6358 55 63.75 56.7909 63.75 59V73.75C63.75 76.5114 61.5114 78.75 58.75 78.75H45.4514C43.8214 78.75 42.5 77.6307 42.5 76.25C42.5 74.8693 43.8214 73.75 45.4514 73.75H55.375C55.7202 73.75 56 73.4702 56 73.125C56 72.7798 55.7202 72.5 55.375 72.5H45.4514C43.8214 72.5 42.5 71.3807 42.5 70C42.5 68.6193 43.8214 67.5 45.4514 67.5H55.375C55.7202 67.5 56 67.2202 56 66.875C56 66.5298 55.7202 66.25 55.375 66.25H45.4514C43.8214 66.25 42.5 65.1307 42.5 63.75C42.5 62.3693 43.8214 61.25 45.4514 61.25H55.375C55.7202 61.25 56 60.9702 56 60.625C56 60.2798 55.7202 60 55.375 60H45.4514C43.8214 60 42.5 58.8807 42.5 57.5Z" fill="#374E61" fill-opacity="0.06"/>
<path d="M38.75 76.25C38.75 77.6307 37.4286 78.75 35.7986 78.75H22.2222C19.6142 78.75 17.5 76.9591 17.5 74.75L17.5 60C17.5 57.2386 19.7386 55 22.5 55H35.7986C37.4286 55 38.75 56.1193 38.75 57.5C38.75 58.8807 37.4286 60 35.7986 60H25.875C25.5298 60 25.25 60.2798 25.25 60.625C25.25 60.9702 25.5298 61.25 25.875 61.25H35.7986C37.4286 61.25 38.75 62.3693 38.75 63.75C38.75 65.1307 37.4286 66.25 35.7986 66.25H25.875C25.5298 66.25 25.25 66.5298 25.25 66.875C25.25 67.2202 25.5298 67.5 25.875 67.5H35.7986C37.4286 67.5 38.75 68.6193 38.75 70C38.75 71.3807 37.4286 72.5 35.7986 72.5H25.875C25.5298 72.5 25.25 72.7798 25.25 73.125C25.25 73.4702 25.5298 73.75 25.875 73.75H35.7986C37.4286 73.75 38.75 74.8693 38.75 76.25Z" fill="white"/>
<path d="M38.75 76.25C38.75 77.6307 37.4286 78.75 35.7986 78.75H22.2222C19.6142 78.75 17.5 76.9591 17.5 74.75L17.5 60C17.5 57.2386 19.7386 55 22.5 55H35.7986C37.4286 55 38.75 56.1193 38.75 57.5C38.75 58.8807 37.4286 60 35.7986 60H25.875C25.5298 60 25.25 60.2798 25.25 60.625C25.25 60.9702 25.5298 61.25 25.875 61.25H35.7986C37.4286 61.25 38.75 62.3693 38.75 63.75C38.75 65.1307 37.4286 66.25 35.7986 66.25H25.875C25.5298 66.25 25.25 66.5298 25.25 66.875C25.25 67.2202 25.5298 67.5 25.875 67.5H35.7986C37.4286 67.5 38.75 68.6193 38.75 70C38.75 71.3807 37.4286 72.5 35.7986 72.5H25.875C25.5298 72.5 25.25 72.7798 25.25 73.125C25.25 73.4702 25.5298 73.75 25.875 73.75H35.7986C37.4286 73.75 38.75 74.8693 38.75 76.25Z" fill="#374E61" fill-opacity="0.06"/>
</svg>
