<svg width="24" height="24" viewBox="0 0 24 24" fill="none" xmlns="http://www.w3.org/2000/svg">
<path d="M12.2156 2.33674L12.2213 2.33947L12.2418 2.34932C12.2594 2.35783 12.2849 2.37024 12.3177 2.38649C12.3832 2.41898 12.4779 2.46687 12.5977 2.5298C12.8373 2.65562 13.1775 2.84175 13.5848 3.08534C14.3983 3.57185 15.4851 4.29084 16.5745 5.21997C18.7343 7.06218 21 9.81431 21 13.2879C21 17.5047 17.832 22.2879 12 22.2879C6.15597 22.2879 3 17.1255 3 13.2879C3 11.3545 3.66476 9.76602 4.32082 8.66838C4.64942 8.1186 4.97838 7.68758 5.22679 7.39235C5.35113 7.24458 5.4557 7.13035 5.53051 7.0518C5.56793 7.01251 5.59795 6.9821 5.61933 6.96083L5.64477 6.93582L5.65236 6.92851L5.65481 6.92616L5.6557 6.92532L6.18635 6.42325L6.46274 7.09848C6.63543 7.52038 6.79621 7.92385 6.94882 8.30683L6.94883 8.30685C7.08797 8.65603 7.22033 8.98818 7.34874 9.30173L7.83257 10.42C7.92339 10.6143 8.01406 10.7972 8.10572 10.9683C8.47326 11.6543 8.79416 12.0257 9.10323 12.1874C9.20742 11.8731 9.38015 11.5719 9.57301 11.2927C9.89301 10.8296 10.3224 10.3526 10.7595 9.88423C10.8634 9.77287 10.9677 9.66201 11.0715 9.55159L11.0715 9.55159C11.8718 8.7005 12.6467 7.87644 13.0528 7.06428L13.2987 6.57246L13.765 6.86389L13.7668 6.86501L13.77 6.86704L13.7807 6.87386L13.8186 6.8984C13.851 6.91955 13.8971 6.95024 13.9551 6.99013C14.0711 7.06986 14.2348 7.18651 14.4303 7.3372C14.8204 7.63796 15.3415 8.07745 15.8641 8.63271C16.8968 9.72995 18 11.3485 18 13.2879C18 16.6038 15.2739 19.2879 12 19.2879C8.72608 19.2879 6 16.6038 6 13.2879C6 12.6837 6.09108 12.1143 6.24873 11.5752L7.0146 12.9059C7.00496 13.0316 7 13.1589 7 13.2879C7 16.0471 9.27392 18.2879 12 18.2879C14.7261 18.2879 17 16.0471 17 13.2879C17 11.7272 16.1032 10.3458 15.1359 9.31807C14.6585 8.81083 14.1796 8.40658 13.8197 8.12921C13.7641 8.08635 13.7115 8.04659 13.6622 8.01004C13.1627 8.79195 12.4443 9.55385 11.7982 10.2391C11.6934 10.3504 11.5904 10.4596 11.4905 10.5666C11.0526 11.0357 10.6695 11.465 10.3957 11.8612C10.115 12.2675 10 12.5689 10 12.7879V13.2879H9.5C8.48577 13.2879 7.81771 12.5069 7.29785 11.5752L6.71947 10.3828C6.48556 9.8469 6.24888 9.2528 5.9989 8.62532C5.94616 8.49294 5.89283 8.35908 5.83881 8.22396C5.64329 8.47109 5.41134 8.793 5.17918 9.18142C4.58524 10.1751 4 11.5867 4 13.2879C4 16.7196 6.84403 21.2879 12 21.2879C17.168 21.2879 20 17.0711 20 13.2879C20 10.2615 18.0157 7.7636 15.9255 5.98081C14.8899 5.09744 13.8517 4.41018 13.0715 3.94357C12.8258 3.79661 12.6061 3.67186 12.4209 3.57008C12.2791 4.2746 11.9586 4.92844 11.5604 5.54389C11.0903 6.27039 10.4845 6.98273 9.88807 7.68392L9.88806 7.68393C9.80226 7.7848 9.71666 7.88544 9.63169 7.98586C9.20665 8.48818 8.79496 8.98863 8.42836 9.5L7.95491 8.45941C8.2543 8.07062 8.56483 7.69858 8.86831 7.33992C8.95579 7.23653 9.04265 7.13434 9.12864 7.03318C9.73011 6.32555 10.289 5.66796 10.7208 5.00064C11.2103 4.24419 11.5 3.52755 11.5 2.78789V2L12.2129 2.33548L12.2156 2.33674Z" fill="#1A1919"/>
</svg>
