<svg width="80" height="80" viewBox="0 0 80 80" fill="none" xmlns="http://www.w3.org/2000/svg">
<path fill-rule="evenodd" clip-rule="evenodd" d="M35.301 25.8272L30.2241 17.6773L32.3461 16.3555L37.423 24.5054C38.5348 26.2902 39.1242 28.3509 39.1242 30.4537V79.4303H36.6242V30.4537C36.6242 28.8182 36.1658 27.2154 35.301 25.8272Z" fill="white"/>
<path fill-rule="evenodd" clip-rule="evenodd" d="M35.301 25.8272L30.2241 17.6773L32.3461 16.3555L37.423 24.5054C38.5348 26.2902 39.1242 28.3509 39.1242 30.4537V79.4303H36.6242V30.4537C36.6242 28.8182 36.1658 27.2154 35.301 25.8272Z" fill="#374E61" fill-opacity="0.2"/>
<path fill-rule="evenodd" clip-rule="evenodd" d="M45.7744 39.8613L62.5877 31.7871L63.67 34.0407L46.8567 42.115C43.8237 43.5715 41.8945 46.6381 41.8945 50.0027L41.8949 79.4386L39.3949 79.4386L39.3945 50.0027C39.3945 45.6768 41.8749 41.734 45.7744 39.8613Z" fill="white"/>
<path fill-rule="evenodd" clip-rule="evenodd" d="M45.7744 39.8613L62.5877 31.7871L63.67 34.0407L46.8567 42.115C43.8237 43.5715 41.8945 46.6381 41.8945 50.0027L41.8949 79.4386L39.3949 79.4386L39.3945 50.0027C39.3945 45.6768 41.8749 41.734 45.7744 39.8613Z" fill="#374E61" fill-opacity="0.2"/>
<path d="M32.4219 2.5C32.4219 6.875 31.6963 15 30.5469 15C29.3974 15 28.6719 6.875 28.6719 2.5C28.6719 1.11929 29.5113 0 30.5469 0C31.5824 0 32.4219 1.11929 32.4219 2.5Z" fill="white"/>
<path d="M32.4219 2.5C32.4219 6.875 31.6963 15 30.5469 15C29.3974 15 28.6719 6.875 28.6719 2.5C28.6719 1.11929 29.5113 0 30.5469 0C31.5824 0 32.4219 1.11929 32.4219 2.5Z" fill="#001D32"/>
<path d="M25.0567 3.2637C27.2442 7.05256 30.6783 14.4518 29.6829 15.0265C28.6874 15.6012 23.9966 8.92756 21.8091 5.1387C21.1187 3.94296 21.2861 2.5539 22.1829 2.03613C23.0797 1.51837 24.3663 2.06796 25.0567 3.2637Z" fill="white"/>
<path d="M25.0567 3.2637C27.2442 7.05256 30.6783 14.4518 29.6829 15.0265C28.6874 15.6012 23.9966 8.92756 21.8091 5.1387C21.1187 3.94296 21.2861 2.5539 22.1829 2.03613C23.0797 1.51837 24.3663 2.06796 25.0567 3.2637Z" fill="#001D32"/>
<path d="M39.251 4.85452C37.0635 8.64338 32.3727 15.3171 31.3772 14.7423C30.3818 14.1676 33.8159 6.76838 36.0034 2.97952C36.6938 1.78379 37.9804 1.23419 38.8772 1.75195C39.774 2.26972 39.9414 3.65879 39.251 4.85452Z" fill="white"/>
<path d="M39.251 4.85452C37.0635 8.64338 32.3727 15.3171 31.3772 14.7423C30.3818 14.1676 33.8159 6.76838 36.0034 2.97952C36.6938 1.78379 37.9804 1.23419 38.8772 1.75195C39.774 2.26972 39.9414 3.65879 39.251 4.85452Z" fill="#001D32"/>
<path d="M18.9278 7.51901C22.7166 9.70651 29.3903 14.3973 28.8156 15.3928C28.2408 16.3883 20.8416 12.9541 17.0528 10.7666C15.857 10.0762 15.3074 8.7896 15.8252 7.8928C16.343 6.99601 17.732 6.82865 18.9278 7.51901Z" fill="white"/>
<path d="M18.9278 7.51901C22.7166 9.70651 29.3903 14.3973 28.8156 15.3928C28.2408 16.3883 20.8416 12.9541 17.0528 10.7666C15.857 10.0762 15.3074 8.7896 15.8252 7.8928C16.343 6.99601 17.732 6.82865 18.9278 7.51901Z" fill="#001D32"/>
<path d="M43.6269 10.7662C39.8381 12.9537 32.4388 16.3878 31.8641 15.3924C31.2894 14.3969 37.9631 9.70605 41.7519 7.51855C42.9477 6.8282 44.3367 6.99555 44.8545 7.89235C45.3723 8.78915 44.8227 10.0758 43.6269 10.7662Z" fill="white"/>
<path d="M43.6269 10.7662C39.8381 12.9537 32.4388 16.3878 31.8641 15.3924C31.2894 14.3969 37.9631 9.70605 41.7519 7.51855C42.9477 6.8282 44.3367 6.99555 44.8545 7.89235C45.3723 8.78915 44.8227 10.0758 43.6269 10.7662Z" fill="#001D32"/>
<path d="M16.7969 14.5C21.1719 14.5 29.2969 15.2255 29.2969 16.375C29.2969 17.5245 21.1719 18.25 16.7969 18.25C15.4162 18.25 14.2969 17.4105 14.2969 16.375C14.2969 15.3395 15.4162 14.5 16.7969 14.5Z" fill="white"/>
<path d="M16.7969 14.5C21.1719 14.5 29.2969 15.2255 29.2969 16.375C29.2969 17.5245 21.1719 18.25 16.7969 18.25C15.4162 18.25 14.2969 17.4105 14.2969 16.375C14.2969 15.3395 15.4162 14.5 16.7969 14.5Z" fill="#001D32"/>
<path d="M17.3858 21.9301C21.1746 19.7426 28.5739 16.3085 29.1486 17.3039C29.7233 18.2994 23.0496 22.9902 19.2608 25.1777C18.065 25.8681 16.676 25.7007 16.1582 24.8039C15.6404 23.9071 16.19 22.6205 17.3858 21.9301Z" fill="white"/>
<path d="M17.3858 21.9301C21.1746 19.7426 28.5739 16.3085 29.1486 17.3039C29.7233 18.2994 23.0496 22.9902 19.2608 25.1777C18.065 25.8681 16.676 25.7007 16.1582 24.8039C15.6404 23.9071 16.19 22.6205 17.3858 21.9301Z" fill="#001D32"/>
<path d="M42.1318 25.1773C38.343 22.9898 31.6693 18.2989 32.244 17.3035C32.8187 16.308 40.218 19.7422 44.0068 21.9297C45.2025 22.62 45.7521 23.9067 45.2344 24.8035C44.7166 25.7003 43.3275 25.8676 42.1318 25.1773Z" fill="white"/>
<path d="M42.1318 25.1773C38.343 22.9898 31.6693 18.2989 32.244 17.3035C32.8187 16.308 40.218 19.7422 44.0068 21.9297C45.2025 22.62 45.7521 23.9067 45.2344 24.8035C44.7166 25.7003 43.3275 25.8676 42.1318 25.1773Z" fill="#001D32"/>
<path d="M21.8086 27.8418C23.9961 24.0529 28.6869 17.3792 29.6824 17.954C30.6778 18.5287 27.2437 25.9279 25.0562 29.7168C24.3658 30.9125 23.0792 31.4621 22.1824 30.9443C21.2856 30.4266 21.1182 29.0375 21.8086 27.8418Z" fill="white"/>
<path d="M21.8086 27.8418C23.9961 24.0529 28.6869 17.3792 29.6824 17.954C30.6778 18.5287 27.2437 25.9279 25.0562 29.7168C24.3658 30.9125 23.0792 31.4621 22.1824 30.9443C21.2856 30.4266 21.1182 29.0375 21.8086 27.8418Z" fill="#001D32"/>
<path d="M36.1714 29.7168C33.9839 25.9279 30.5497 18.5287 31.5451 17.954C32.5406 17.3792 37.2314 24.0529 39.4189 27.8418C40.1093 29.0375 39.9419 30.4266 39.0451 30.9443C38.1483 31.4621 36.8617 30.9125 36.1714 29.7168Z" fill="white"/>
<path d="M36.1714 29.7168C33.9839 25.9279 30.5497 18.5287 31.5451 17.954C32.5406 17.3792 37.2314 24.0529 39.4189 27.8418C40.1093 29.0375 39.9419 30.4266 39.0451 30.9443C38.1483 31.4621 36.8617 30.9125 36.1714 29.7168Z" fill="#001D32"/>
<path d="M44.2969 18.125C39.9219 18.125 31.7969 17.3995 31.7969 16.25C31.7969 15.1005 39.9219 14.375 44.2969 14.375C45.6776 14.375 46.7969 15.2145 46.7969 16.25C46.7969 17.2855 45.6776 18.125 44.2969 18.125Z" fill="white"/>
<path d="M44.2969 18.125C39.9219 18.125 31.7969 17.3995 31.7969 16.25C31.7969 15.1005 39.9219 14.375 44.2969 14.375C45.6776 14.375 46.7969 15.2145 46.7969 16.25C46.7969 17.2855 45.6776 18.125 44.2969 18.125Z" fill="#001D32"/>
<path d="M28.6719 30C28.6719 25.625 29.3974 17.5 30.5469 17.5C31.6963 17.5 32.4219 25.625 32.4219 30C32.4219 31.3807 31.5824 32.5 30.5469 32.5C29.5113 32.5 28.6719 31.3807 28.6719 30Z" fill="white"/>
<path d="M28.6719 30C28.6719 25.625 29.3974 17.5 30.5469 17.5C31.6963 17.5 32.4219 25.625 32.4219 30C32.4219 31.3807 31.5824 32.5 30.5469 32.5C29.5113 32.5 28.6719 31.3807 28.6719 30Z" fill="#001D32"/>
<circle cx="30.5469" cy="16.25" r="3.75" fill="white"/>
<circle cx="30.5469" cy="16.25" r="3.75" fill="#374E61" fill-opacity="0.2"/>
<path d="M55.729 18.9726C58.3465 22.4782 62.6262 29.4227 61.7051 30.1104C60.7841 30.7981 55.3417 24.7217 52.7242 21.2161C51.8982 20.1098 51.9012 18.7107 52.7309 18.0911C53.5607 17.4716 54.903 17.8662 55.729 18.9726Z" fill="#001D32"/>
<path d="M71.0493 45.7599C68.4318 42.2542 64.1522 35.3097 65.0732 34.622C65.9942 33.9343 71.4366 40.0107 74.0541 43.5163C74.8802 44.6227 74.8772 46.0218 74.0474 46.6413C73.2176 47.2608 71.8753 46.8662 71.0493 45.7599Z" fill="#001D32"/>
<path d="M50.7379 24.6285C54.7575 26.3558 61.936 30.2301 61.4822 31.2862C61.0284 32.3422 53.277 29.8011 49.2574 28.0739C47.9888 27.5288 47.2919 26.3156 47.7007 25.3642C48.1095 24.4128 49.4693 24.0834 50.7379 24.6285Z" fill="#001D32"/>
<path d="M63.4847 47.1297C62.9707 42.785 62.7367 34.6311 63.8782 34.496C65.0197 34.361 66.6948 42.3445 67.2087 46.6892C67.3709 48.0603 66.6688 49.2705 65.6404 49.3922C64.6121 49.5138 63.6469 48.5009 63.4847 47.1297Z" fill="#001D32"/>
<path d="M49.7907 31.6288C54.1354 31.1148 62.2893 30.8808 62.4244 32.0223C62.5594 33.1638 54.5759 34.8388 50.2312 35.3528C48.8601 35.515 47.6499 34.8128 47.5283 33.7845C47.4066 32.7561 48.4195 31.791 49.7907 31.6288Z" fill="#001D32"/>
<path d="M56.8023 44.1542C58.5296 40.1346 62.4039 32.9561 63.46 33.4099C64.5161 33.8637 61.975 41.6151 60.2477 45.6347C59.7026 46.9033 58.4895 47.6002 57.5381 47.1914C56.5866 46.7826 56.2572 45.4228 56.8023 44.1542Z" fill="#001D32"/>
<path d="M52.0404 38.4995C55.5461 35.882 62.4906 31.6024 63.1783 32.5234C63.866 33.4444 57.7896 38.8868 54.284 41.5043C53.1776 42.3304 51.7785 42.3273 51.159 41.4976C50.5395 40.6678 50.9341 39.3255 52.0404 38.4995Z" fill="#001D32"/>
<path d="M64.9266 35.8987L62.6831 32.8939L60.4395 29.8891C62.099 28.65 64.4488 28.9908 65.6879 30.6503C66.927 32.3099 66.5861 34.6596 64.9266 35.8987Z" fill="white"/>
<path d="M64.9266 35.8987L62.6831 32.8939L60.4395 29.8891C62.099 28.65 64.4488 28.9908 65.6879 30.6503C66.927 32.3099 66.5861 34.6596 64.9266 35.8987Z" fill="#374E61" fill-opacity="0.2"/>
<path d="M23.2002 53C23.2002 50.2386 25.4388 48 28.2002 48L42.5752 48C44.3011 48 45.7002 49.3992 45.7002 51.125C45.7002 52.8509 44.3011 54.2501 42.5752 54.2501H23.2002V53Z" fill="white"/>
<path d="M23.2002 53C23.2002 50.2386 25.4388 48 28.2002 48L42.5752 48C44.3011 48 45.7002 49.3992 45.7002 51.125C45.7002 52.8509 44.3011 54.2501 42.5752 54.2501H23.2002V53Z" fill="#374E61" fill-opacity="0.1"/>
<path d="M23.2002 54.25H42.5752C44.3011 54.25 45.7002 55.6491 45.7002 57.375L-nan -nanL45.7002 57.375C45.7002 59.1009 44.3011 60.5 42.5752 60.5H23.2002V54.25Z" fill="white"/>
<path d="M23.2002 54.25H42.5752C44.3011 54.25 45.7002 55.6491 45.7002 57.375L-nan -nanL45.7002 57.375C45.7002 59.1009 44.3011 60.5 42.5752 60.5H23.2002V54.25Z" fill="#374E61" fill-opacity="0.1"/>
<path d="M23.2002 60.5H42.5752C44.3011 60.5 45.7002 61.8991 45.7002 63.625C45.7002 65.3509 44.3011 66.75 42.5752 66.75H23.2002V60.5Z" fill="white"/>
<path d="M23.2002 60.5H42.5752C44.3011 60.5 45.7002 61.8991 45.7002 63.625C45.7002 65.3509 44.3011 66.75 42.5752 66.75H23.2002V60.5Z" fill="#374E61" fill-opacity="0.1"/>
<path d="M23.2002 66.75H42.5752C44.3011 66.75 45.7002 68.1491 45.7002 69.875C45.7002 71.6009 44.3011 73 42.5752 73H26.6179C24.7304 73 23.2002 71.4698 23.2002 69.5823V66.75Z" fill="white"/>
<path d="M23.2002 66.75H42.5752C44.3011 66.75 45.7002 68.1491 45.7002 69.875C45.7002 71.6009 44.3011 73 42.5752 73H26.6179C24.7304 73 23.2002 71.4698 23.2002 69.5823V66.75Z" fill="#374E61" fill-opacity="0.1"/>
<path d="M44.4502 69.25C44.4502 70.6307 43.1288 71.75 41.4988 71.75H27.9224C25.3144 71.75 23.2002 69.9591 23.2002 67.75L23.2002 53C23.2002 50.2386 25.4388 48 28.2002 48H41.4988C43.1288 48 44.4502 49.1193 44.4502 50.5C44.4502 51.8807 43.1288 53 41.4988 53H31.5752C31.23 53 30.9502 53.2798 30.9502 53.625C30.9502 53.9702 31.23 54.25 31.5752 54.25H41.4988C43.1288 54.25 44.4502 55.3693 44.4502 56.75C44.4502 58.1307 43.1288 59.25 41.4988 59.25H31.5752C31.23 59.25 30.9502 59.5298 30.9502 59.875C30.9502 60.2202 31.23 60.5 31.5752 60.5H41.4988C43.1288 60.5 44.4502 61.6193 44.4502 63C44.4502 64.3807 43.1288 65.5 41.4988 65.5H31.5752C31.23 65.5 30.9502 65.7798 30.9502 66.125C30.9502 66.4702 31.23 66.75 31.5752 66.75H41.4988C43.1288 66.75 44.4502 67.8693 44.4502 69.25Z" fill="white"/>
<path d="M44.4502 69.25C44.4502 70.6307 43.1288 71.75 41.4988 71.75H27.9224C25.3144 71.75 23.2002 69.9591 23.2002 67.75L23.2002 53C23.2002 50.2386 25.4388 48 28.2002 48H41.4988C43.1288 48 44.4502 49.1193 44.4502 50.5C44.4502 51.8807 43.1288 53 41.4988 53H31.5752C31.23 53 30.9502 53.2798 30.9502 53.625C30.9502 53.9702 31.23 54.25 31.5752 54.25H41.4988C43.1288 54.25 44.4502 55.3693 44.4502 56.75C44.4502 58.1307 43.1288 59.25 41.4988 59.25H31.5752C31.23 59.25 30.9502 59.5298 30.9502 59.875C30.9502 60.2202 31.23 60.5 31.5752 60.5H41.4988C43.1288 60.5 44.4502 61.6193 44.4502 63C44.4502 64.3807 43.1288 65.5 41.4988 65.5H31.5752C31.23 65.5 30.9502 65.7798 30.9502 66.125C30.9502 66.4702 31.23 66.75 31.5752 66.75H41.4988C43.1288 66.75 44.4502 67.8693 44.4502 69.25Z" fill="#374E61" fill-opacity="0.06"/>
<path fill-rule="evenodd" clip-rule="evenodd" d="M33.1748 55C31.4489 55 30.0498 56.3991 30.0498 58.125C30.0498 59.8509 31.4489 61.25 33.1748 61.25C31.4489 61.25 30.0498 62.6491 30.0498 64.375C30.0498 66.1009 31.4489 67.5 33.1748 67.5C31.4489 67.5 30.0498 68.8991 30.0498 70.625C30.0498 72.3509 31.4489 73.75 33.1748 73.75C31.4489 73.75 30.0498 75.1491 30.0498 76.875C30.0498 78.6009 31.4489 80 33.1748 80H47.5498C50.3112 80 52.5498 77.7614 52.5498 75V73.75V67.5V61.25V60C52.5498 57.2386 50.3112 55 47.5498 55H33.1748Z" fill="white"/>
<path fill-rule="evenodd" clip-rule="evenodd" d="M33.1748 55C31.4489 55 30.0498 56.3991 30.0498 58.125C30.0498 59.8509 31.4489 61.25 33.1748 61.25C31.4489 61.25 30.0498 62.6491 30.0498 64.375C30.0498 66.1009 31.4489 67.5 33.1748 67.5C31.4489 67.5 30.0498 68.8991 30.0498 70.625C30.0498 72.3509 31.4489 73.75 33.1748 73.75C31.4489 73.75 30.0498 75.1491 30.0498 76.875C30.0498 78.6009 31.4489 80 33.1748 80H47.5498C50.3112 80 52.5498 77.7614 52.5498 75V73.75V67.5V61.25V60C52.5498 57.2386 50.3112 55 47.5498 55H33.1748Z" fill="#374E61" fill-opacity="0.1"/>
<path d="M31.2998 57.5C31.2998 56.1193 32.6212 55 34.2512 55H47.8276C50.4356 55 52.5498 56.7909 52.5498 59V73.75C52.5498 76.5114 50.3112 78.75 47.5498 78.75H34.2512C32.6212 78.75 31.2998 77.6307 31.2998 76.25C31.2998 74.8693 32.6212 73.75 34.2512 73.75H44.1748C44.52 73.75 44.7998 73.4702 44.7998 73.125C44.7998 72.7798 44.52 72.5 44.1748 72.5H34.2512C32.6212 72.5 31.2998 71.3807 31.2998 70C31.2998 68.6193 32.6212 67.5 34.2512 67.5H44.1748C44.52 67.5 44.7998 67.2202 44.7998 66.875C44.7998 66.5298 44.52 66.25 44.1748 66.25H34.2512C32.6212 66.25 31.2998 65.1307 31.2998 63.75C31.2998 62.3693 32.6212 61.25 34.2512 61.25H44.1748C44.52 61.25 44.7998 60.9702 44.7998 60.625C44.7998 60.2798 44.52 60 44.1748 60H34.2512C32.6212 60 31.2998 58.8807 31.2998 57.5Z" fill="white"/>
<path d="M31.2998 57.5C31.2998 56.1193 32.6212 55 34.2512 55H47.8276C50.4356 55 52.5498 56.7909 52.5498 59V73.75C52.5498 76.5114 50.3112 78.75 47.5498 78.75H34.2512C32.6212 78.75 31.2998 77.6307 31.2998 76.25C31.2998 74.8693 32.6212 73.75 34.2512 73.75H44.1748C44.52 73.75 44.7998 73.4702 44.7998 73.125C44.7998 72.7798 44.52 72.5 44.1748 72.5H34.2512C32.6212 72.5 31.2998 71.3807 31.2998 70C31.2998 68.6193 32.6212 67.5 34.2512 67.5H44.1748C44.52 67.5 44.7998 67.2202 44.7998 66.875C44.7998 66.5298 44.52 66.25 44.1748 66.25H34.2512C32.6212 66.25 31.2998 65.1307 31.2998 63.75C31.2998 62.3693 32.6212 61.25 34.2512 61.25H44.1748C44.52 61.25 44.7998 60.9702 44.7998 60.625C44.7998 60.2798 44.52 60 44.1748 60H34.2512C32.6212 60 31.2998 58.8807 31.2998 57.5Z" fill="#374E61" fill-opacity="0.06"/>
<path fill-rule="evenodd" clip-rule="evenodd" d="M52.4407 8.07297C51.9859 7.59219 51.2477 7.10946 50.0926 6.69967C49.6762 6.55194 49.4273 6.1132 49.5476 5.68807L-nan -nanL49.5476 5.68807C49.668 5.26295 50.1114 5.01299 50.529 5.15728C51.9003 5.63108 52.9111 6.24201 53.603 6.9734C54.4362 7.85411 54.7629 8.86433 54.7362 9.8719C54.6935 11.4831 53.756 13.013 52.809 14.086C52.5166 14.4173 52.0079 14.4048 51.7022 14.0859L-nan -nanL51.7022 14.0859C51.3964 13.767 51.4101 13.2626 51.6973 12.9268C52.4693 12.0238 53.1089 10.8803 53.1368 9.82956C53.1527 9.22669 52.9701 8.63252 52.4407 8.07297Z" fill="#374E61" fill-opacity="0.06"/>
<path fill-rule="evenodd" clip-rule="evenodd" d="M12.7762 31.617C13.4303 31.7178 14.3094 31.6464 15.4731 31.2617C15.8926 31.1231 16.3583 31.317 16.5239 31.7266L-nan -nanL16.5239 31.7266C16.6896 32.1362 16.4926 32.6056 16.0743 32.7477C14.7006 33.2144 13.5275 33.3517 12.5324 33.1983C11.3342 33.0136 10.4567 32.416 9.85983 31.6038C8.90543 30.3049 8.70776 28.5215 8.79774 27.0932C8.82552 26.6523 9.235 26.3502 9.67211 26.4146L-nan -nanL9.67211 26.4146C10.1092 26.479 10.4077 26.8858 10.3868 27.3271C10.3307 28.5138 10.5268 29.8094 11.1492 30.6563C11.5063 31.1423 12.0149 31.4997 12.7762 31.617Z" fill="#374E61" fill-opacity="0.06"/>
<path fill-rule="evenodd" clip-rule="evenodd" d="M68.4921 53.9563C69.0679 53.63 69.7136 53.0291 70.3884 52.006C70.6316 51.6372 71.1173 51.5007 71.5011 51.7195L-nan -nanL71.5011 51.7195C71.885 51.9383 72.0213 52.4287 71.7811 52.7996C70.9923 54.0172 70.1568 54.852 69.2808 55.3484C68.226 55.946 67.167 56.0209 66.1952 55.7534C64.6412 55.3256 63.3808 54.0486 62.5661 52.8719C62.3146 52.5086 62.4488 52.0178 62.8317 51.7974L-nan -nanL62.8317 51.7974C63.2146 51.577 63.701 51.7113 63.9582 52.0706C64.6496 53.0366 65.6065 53.9318 66.6198 54.2108C67.2013 54.3709 67.8219 54.336 68.4921 53.9563Z" fill="#374E61" fill-opacity="0.06"/>
<path fill-rule="evenodd" clip-rule="evenodd" d="M68.5122 25.5333C67.8642 25.3988 66.9826 25.4247 65.8006 25.7487C65.3744 25.8655 64.9194 25.6478 64.7751 25.2302L-nan -nanL64.7751 25.2302C64.6309 24.8126 64.8519 24.354 65.277 24.2337C66.673 23.8386 67.8516 23.7621 68.8374 23.9667C70.0244 24.213 70.87 24.8552 71.424 25.6972C72.31 27.0436 72.4153 28.8348 72.2516 30.2566C72.2011 30.6955 71.7766 30.976 71.3434 30.8891L-nan -nanL71.3434 30.8891C70.9102 30.8023 70.6332 30.3806 70.6768 29.9409C70.7941 28.7587 70.6652 27.4547 70.0874 26.5767C69.7559 26.0729 69.2664 25.6898 68.5122 25.5333Z" fill="#374E61" fill-opacity="0.06"/>
</svg>
