<svg width="72" height="72" viewBox="0 0 72 72" fill="none" xmlns="http://www.w3.org/2000/svg">
<rect x="0.5" y="0.5" width="71" height="71" rx="23.5" fill="#003351"/>
<g clip-path="url(#clip0_281_5343)">
<path fill-rule="evenodd" clip-rule="evenodd" d="M31.2656 43.1004C30.2003 44.0088 28.798 44.5225 27.291 44.4351C25.784 44.3478 24.4505 43.6755 23.4973 42.6501C24.5626 41.7417 25.9649 41.228 27.4719 41.3154C28.9789 41.4028 30.3124 42.0751 31.2656 43.1004ZM27.2548 45.0591C29.1525 45.1691 30.9014 44.4205 32.1232 43.1502C31.0564 41.7471 29.4057 40.8014 27.5081 40.6914C25.6104 40.5814 23.8616 41.33 22.6397 42.6004C23.7066 44.0034 25.3572 44.9491 27.2548 45.0591Z" fill="white"/>
<path fill-rule="evenodd" clip-rule="evenodd" d="M23.5652 26.2488C22.4243 26.362 21.2408 26.0635 20.2533 25.32C19.2659 24.5766 18.6519 23.5218 18.4452 22.3941C19.5862 22.2809 20.7696 22.5794 21.7571 23.3228C22.7445 24.0663 23.3586 25.1211 23.5652 26.2488ZM19.8774 25.8193C21.179 26.7993 22.7824 27.0961 24.2577 26.7702C24.163 25.2623 23.4346 23.8035 22.133 22.8235C20.8314 21.8436 19.228 21.5468 17.7528 21.8727C17.8474 23.3805 18.5758 24.8394 19.8774 25.8193Z" fill="white"/>
<path fill-rule="evenodd" clip-rule="evenodd" d="M41.5592 43.7924C42.9123 43.433 44.399 43.5751 45.7205 44.3046C47.0421 45.0341 47.9546 46.2163 48.3716 47.5527C47.0186 47.9121 45.5319 47.7699 44.2103 47.0404C42.8888 46.311 41.9762 45.1288 41.5592 43.7924ZM46.0226 43.7574C44.3584 42.8388 42.4577 42.7589 40.8071 43.3772C41.1636 45.1034 42.2442 46.6691 43.9083 47.5876C45.5724 48.5062 47.4731 48.5861 49.1237 47.9678C48.7672 46.2417 47.6867 44.676 46.0226 43.7574Z" fill="white"/>
<path fill-rule="evenodd" clip-rule="evenodd" d="M33.1639 36.8073C33.1639 36.4758 33.0322 36.1578 32.7978 35.9234L32.0109 35.1365C31.9252 35.0509 31.9252 34.912 32.0109 34.8264L32.7978 34.0395C33.0322 33.8051 33.1639 33.4871 33.1639 33.1556V32.0429C33.1639 31.9218 33.2621 31.8236 33.3832 31.8236H34.4959C34.8274 31.8236 35.1453 31.6919 35.3798 31.4575L36.1666 30.6707C36.2522 30.585 36.3911 30.585 36.4767 30.6707L37.2635 31.4575C37.498 31.6919 37.8159 31.8236 38.1474 31.8236H39.2603C39.3814 31.8236 39.4795 31.9218 39.4795 32.0429V33.1557C39.4795 33.4872 39.6112 33.8052 39.8456 34.0396L40.6324 34.8264C40.7181 34.912 40.7181 35.0509 40.6324 35.1365L39.8456 35.9233C39.6112 36.1577 39.4795 36.4757 39.4795 36.8072V37.92C39.4795 38.0411 39.3814 38.1393 39.2603 38.1393H38.1474C37.8159 38.1393 37.498 38.271 37.2635 38.5054L36.4767 39.2922C36.3911 39.3779 36.2522 39.3779 36.1666 39.2922L35.3798 38.5054C35.1453 38.271 34.8274 38.1393 34.4959 38.1393H33.3832C33.2621 38.1393 33.1639 38.0411 33.1639 37.92V36.8073ZM37.3606 29.7868C36.7868 29.213 35.8565 29.213 35.2827 29.7868L34.4959 30.5736H33.3832C32.5717 30.5736 31.9139 31.2314 31.9139 32.0429V33.1556L31.127 33.9425C30.5532 34.5163 30.5532 35.4466 31.127 36.0204L31.9139 36.8073V37.92C31.9139 38.7314 32.5717 39.3893 33.3832 39.3893H34.4959L35.2827 40.1761C35.8565 40.7499 36.7868 40.7499 37.3606 40.1761L38.1474 39.3893H39.2603C40.0717 39.3893 40.7295 38.7314 40.7295 37.92V36.8072L41.5163 36.0204C42.0901 35.4466 42.0901 34.5163 41.5163 33.9425L40.7295 33.1557V32.0429C40.7295 31.2314 40.0717 30.5736 39.2603 30.5736H38.1474L37.3606 29.7868ZM36.3308 31.5912C36.1582 31.5912 36.0183 31.7312 36.0183 31.9037V34.1446C36.1161 34.11 36.2212 34.0912 36.3308 34.0912C36.4404 34.0912 36.5456 34.11 36.6433 34.1446V31.9037C36.6433 31.7312 36.5034 31.5912 36.3308 31.5912ZM34.3424 32.598L35.9269 34.1825C35.7338 34.2748 35.5772 34.4313 35.4848 34.6243L33.9004 33.0399C33.7784 32.9179 33.7784 32.72 33.9004 32.598C34.0225 32.476 34.2203 32.476 34.3424 32.598ZM33.2058 34.7162H35.4467C35.4121 34.814 35.3933 34.9192 35.3933 35.0287C35.3933 35.1383 35.4121 35.2435 35.4467 35.3412H33.2058C33.0332 35.3412 32.8933 35.2013 32.8933 35.0287C32.8933 34.8562 33.0332 34.7162 33.2058 34.7162ZM33.8999 37.0175L35.4846 35.4328C35.5769 35.6258 35.7334 35.7824 35.9264 35.8748L34.3418 37.4594C34.2198 37.5814 34.0219 37.5814 33.8999 37.4594C33.7779 37.3374 33.7779 37.1395 33.8999 37.0175ZM36.0183 38.1537V35.9129C36.1161 35.9474 36.2212 35.9662 36.3308 35.9662C36.4404 35.9662 36.5456 35.9474 36.6433 35.9129V38.1537C36.6433 38.3263 36.5034 38.4662 36.3308 38.4662C36.1582 38.4662 36.0183 38.3263 36.0183 38.1537ZM38.3198 37.4594L36.7352 35.8748C36.9283 35.7823 37.0847 35.6258 37.1771 35.4327L38.7618 37.0174C38.8838 37.1395 38.8838 37.3373 38.7618 37.4594C38.6397 37.5814 38.4419 37.5814 38.3198 37.4594ZM39.4558 35.3412H37.215C37.2495 35.2435 37.2683 35.1383 37.2683 35.0287C37.2683 34.9192 37.2495 34.814 37.215 34.7162H39.4558C39.6284 34.7162 39.7683 34.8562 39.7683 35.0287C39.7683 35.2013 39.6284 35.3412 39.4558 35.3412ZM38.7613 33.04L37.1769 34.6244C37.0844 34.4314 36.9279 34.2749 36.7348 34.1825L38.3193 32.598C38.4414 32.476 38.6392 32.476 38.7613 32.598C38.8833 32.7201 38.8833 32.9179 38.7613 33.04Z" fill="white"/>
<path fill-rule="evenodd" clip-rule="evenodd" d="M40.0868 25.5269C40.0868 25.1954 39.9551 24.8774 39.7207 24.643L38.7165 23.6388C38.4724 23.3947 38.4724 22.999 38.7165 22.7549L39.7207 21.7507C39.9551 21.5163 40.0868 21.1984 40.0868 20.8668V19.4469C40.0868 19.1017 40.3666 18.8219 40.7118 18.8219H42.1318C42.4633 18.8219 42.7813 18.6902 43.0157 18.4557L44.0198 17.4516C44.2639 17.2075 44.6596 17.2075 44.9037 17.4516L45.9078 18.4557C46.1422 18.6902 46.4602 18.8219 46.7917 18.8219H48.2118C48.557 18.8219 48.8368 19.1017 48.8368 19.4469V20.867C48.8368 21.1985 48.9685 21.5164 49.2029 21.7509L50.207 22.7549C50.4511 22.999 50.4511 23.3947 50.207 23.6388L49.2029 24.6429C48.9685 24.8773 48.8368 25.1952 48.8368 25.5267V26.9469C48.8368 27.292 48.557 27.5719 48.2118 27.5719H46.7917C46.4602 27.5719 46.1422 27.7036 45.9078 27.938L44.9037 28.9421C44.6596 29.1862 44.2639 29.1862 44.0198 28.9421L43.0157 27.938C42.7813 27.7036 42.4633 27.5719 42.1318 27.5719H40.7118C40.3666 27.5719 40.0868 27.292 40.0868 26.9469V25.5269ZM37.8326 21.871C37.1004 22.6033 37.1004 23.7904 37.8326 24.5227L38.8368 25.5269V26.9469C38.8368 27.9824 39.6763 28.8219 40.7118 28.8219H42.1318L43.1359 29.826C43.8682 30.5582 45.0553 30.5582 45.7876 29.826L46.7917 28.8219H48.2118C49.2473 28.8219 50.0868 27.9824 50.0868 26.9469V25.5267L51.0909 24.5227C51.8231 23.7904 51.8231 22.6033 51.0909 21.871L50.0868 20.867V19.4469C50.0868 18.4113 49.2473 17.5719 48.2118 17.5719H46.7917L45.7876 16.5677C45.0553 15.8355 43.8682 15.8355 43.1359 16.5677L42.1318 17.5719H40.7118C39.6763 17.5719 38.8368 18.4113 38.8368 19.4469V20.8668L37.8326 21.871ZM44.4709 19.7594C44.2984 19.7594 44.1584 19.8993 44.1584 20.0719V22.3127C44.2562 22.2782 44.3614 22.2594 44.4709 22.2594C44.5805 22.2594 44.6857 22.2782 44.7834 22.3127V20.0719C44.7834 19.8993 44.6435 19.7594 44.4709 19.7594ZM42.4819 20.7662L44.0666 22.3508C43.8736 22.4433 43.7171 22.5998 43.6247 22.7929L42.0399 21.2081C41.9179 21.0861 41.9179 20.8882 42.0399 20.7662C42.162 20.6441 42.3598 20.6441 42.4819 20.7662ZM41.3459 22.8844H43.5868C43.5522 22.9821 43.5334 23.0873 43.5334 23.1969C43.5334 23.3065 43.5522 23.4117 43.5868 23.5094H41.3459C41.1734 23.5094 41.0334 23.3695 41.0334 23.1969C41.0334 23.0243 41.1734 22.8844 41.3459 22.8844ZM42.0406 25.1856L43.6249 23.6013C43.7174 23.7944 43.8739 23.9508 44.067 24.0431L42.4826 25.6276C42.3605 25.7496 42.1627 25.7496 42.0406 25.6276C41.9186 25.5055 41.9186 25.3077 42.0406 25.1856ZM44.1584 26.3219V24.0811C44.2562 24.1156 44.3614 24.1344 44.4709 24.1344C44.5805 24.1344 44.6857 24.1156 44.7834 24.0811V26.3219C44.7834 26.4945 44.6435 26.6344 44.4709 26.6344C44.2984 26.6344 44.1584 26.4945 44.1584 26.3219ZM46.4594 25.6275L44.875 24.0431C45.068 23.9508 45.2246 23.7943 45.317 23.6013L46.9013 25.1856C47.0233 25.3076 47.0233 25.5055 46.9013 25.6275C46.7793 25.7495 46.5814 25.7495 46.4594 25.6275ZM47.5959 23.5094H45.3551C45.3896 23.4117 45.4084 23.3065 45.4084 23.1969C45.4084 23.0873 45.3896 22.9821 45.3551 22.8844H47.5959C47.7685 22.8844 47.9084 23.0243 47.9084 23.1969C47.9084 23.3695 47.7685 23.5094 47.5959 23.5094ZM46.902 21.2081L45.3172 22.7929C45.2249 22.5999 45.0684 22.4433 44.8754 22.3509L46.4601 20.7662C46.5821 20.6442 46.78 20.6442 46.902 20.7662C47.024 20.8882 47.024 21.0861 46.902 21.2081Z" fill="white"/>
<path fill-rule="evenodd" clip-rule="evenodd" d="M32.875 42.875H34.125V47.875H32.875V42.875ZM32.875 48.5V49.125H34.125V48.5H32.875ZM32.875 50.375V49.75H34.125V50.375H32.875ZM32.875 51V56H34.125V51H32.875ZM34.75 51V56H36V51H34.75ZM36.625 51V56H37.875V51H36.625ZM37.875 50.375H36.625V49.75H37.875V50.375ZM38.5 51V56H39.75V51H38.5ZM39.75 50.375V49.75H38.5V50.375H39.75ZM36 50.375H34.75V49.75H36V50.375ZM36.625 49.125H37.875V48.5H36.625V49.125ZM39.75 48.5V49.125H38.5V48.5H39.75ZM34.75 49.125H36V48.5H34.75V49.125ZM37.875 47.875H36.625V42.875H37.875V47.875ZM39.75 47.875V42.875H38.5V47.875H39.75ZM36 47.875H34.75V42.875H36V47.875Z" fill="white"/>
<path fill-rule="evenodd" clip-rule="evenodd" d="M49.75 42.6445C52.5114 42.6445 54.75 40.406 54.75 37.6445C54.75 36.2578 54.1855 35.003 53.2738 34.0973C53.4212 34.6295 53.5 35.1903 53.5 35.7695C53.5 38.4517 51.8104 40.7393 49.4375 41.626C48.7793 41.872 48.0685 42.0102 47.3267 42.0191C48.0445 42.4176 48.8708 42.6445 49.75 42.6445ZM47.25 40.7695C47.4463 40.7695 47.6399 40.7582 47.8303 40.7362C47.0959 40.1743 46.4898 39.4531 46.0635 38.6244M52.1903 36.5437C52.2295 36.2914 52.2498 36.0328 52.2498 35.7695C52.2498 35.3378 52.1954 34.9199 52.0933 34.5219C51.4623 34.5414 50.8607 34.6777 50.3094 34.9101C51.0833 35.2622 51.7366 35.833 52.1903 36.5437ZM48.906 35.8021C48.908 35.8003 48.9101 35.7984 48.9122 35.7965C50.2446 35.9722 51.3131 36.9877 51.5672 38.2932C51.4925 38.4208 51.4122 38.5449 51.3267 38.665C51.0001 39.1239 50.598 39.5253 50.1388 39.8511C49.9175 40.008 49.683 40.1473 49.4371 40.2671C49.4044 40.2511 49.3719 40.2348 49.3396 40.2182C49.3379 40.2173 49.3362 40.2164 49.3344 40.2155C48.7411 39.9091 48.2164 39.4869 47.7906 38.9789C47.79 38.9782 47.7894 38.9774 47.7887 38.9767C47.6377 38.7962 47.4992 38.6048 47.3745 38.404C47.6024 37.4031 48.1316 36.5147 48.8639 35.8404C48.8779 35.8276 48.8919 35.8148 48.906 35.8021ZM48.4992 34.5195C49.3811 33.8569 50.444 33.4222 51.6005 33.3029C51.5229 33.1664 51.439 33.0339 51.3493 32.9058C50.8472 32.7364 50.3093 32.6445 49.75 32.6445C49.7148 32.6445 49.6796 32.6449 49.6445 32.6456C48.7847 32.6634 47.9781 32.8983 47.2775 33.2976C46.8623 34.0259 46.625 34.8685 46.625 35.7695C46.625 36.0668 46.6509 36.358 46.7007 36.6411C47.1149 35.8443 47.6956 35.1479 48.3968 34.5982C48.4307 34.5716 48.4648 34.5454 48.4992 34.5195ZM46.0635 38.6241C45.6234 37.7684 45.375 36.798 45.375 35.7695C45.375 35.5679 45.3845 35.3686 45.4032 35.1719C44.9875 35.9011 44.75 36.7451 44.75 37.6445C44.75 37.6769 44.7503 37.7092 44.7509 37.7414C44.7705 38.7698 45.1005 39.7222 45.6512 40.5088C46.1519 40.6777 46.6892 40.7695 47.25 40.7695M46.3681 32.3876C44.6426 33.5 43.5 35.4389 43.5 37.6445C43.5 38.9389 43.8935 40.1415 44.5674 41.139C44.663 41.2805 44.7642 41.4178 44.8708 41.5507C46.0162 42.9796 47.7762 43.8945 49.75 43.8945C53.2018 43.8945 56 41.0963 56 37.6445C56 35.0351 54.4009 32.7992 52.1292 31.8633C51.3959 31.5612 50.5924 31.3945 49.75 31.3945C48.5039 31.3945 47.343 31.7592 46.3681 32.3876Z" fill="white"/>
<path fill-rule="evenodd" clip-rule="evenodd" d="M17.7758 35.8588C18.7222 38.453 21.5924 39.7888 24.1866 38.8425C25.4893 38.3673 26.4747 37.4069 27.0131 36.24C26.5636 36.5609 26.0638 36.8271 25.5197 37.0256C25.1123 37.1742 24.6996 37.2778 24.2868 37.3389C24.2308 37.3472 24.1748 37.3547 24.1187 37.3614C22.0345 37.6121 19.9693 36.7882 18.6253 35.2162L18.6253 35.2158C18.1688 34.6819 17.7955 34.0616 17.5329 33.3679C17.4046 34.1788 17.4745 35.0328 17.7758 35.8588ZM20.2889 31.018L20.2892 31.0179C20.9423 30.3111 21.7689 29.7451 22.7352 29.3926C22.9245 29.3235 23.1151 29.2642 23.3063 29.2143C22.4788 29.0737 21.6045 29.1398 20.7595 29.4481C20.7291 29.4592 20.6989 29.4705 20.6688 29.4821C19.7094 29.8529 18.9278 30.4894 18.3775 31.2763C18.3905 31.8046 18.4883 32.3407 18.6805 32.8676C18.7478 33.0519 18.8247 33.2299 18.9106 33.4011C19.1868 32.5188 19.6565 31.7024 20.2889 31.018ZM24.9807 31.9C24.9807 31.9 24.9807 31.9 24.9807 31.9L24.9805 31.8994C24.197 31.3898 23.3043 31.0584 22.3706 30.9368C22.6195 30.793 22.8843 30.6688 23.1635 30.5669C24.01 30.2581 24.8829 30.1923 25.7094 30.3328C26.3246 30.8541 26.8217 31.5313 27.1331 32.333C27.1458 32.3657 27.1582 32.3986 27.1703 32.4317C27.3619 32.9572 27.46 33.4939 27.4729 34.0237C27.3833 34.152 27.2875 34.2763 27.1858 34.396C26.6774 33.3508 25.9051 32.5014 24.9807 31.9ZM21.1371 32.1536C22.1148 32.0683 23.0812 32.2766 23.9225 32.7254C24.2138 34.0373 23.626 35.3888 22.4868 36.0749C22.3492 36.0498 22.213 36.0191 22.0785 35.9828C21.3413 35.7835 20.6551 35.4175 20.0783 34.9122C20.0185 34.8598 19.9598 34.8058 19.9024 34.7504C20.0004 33.81 20.3647 32.9148 20.9454 32.1741C21.0093 32.166 21.0732 32.1591 21.1371 32.1536ZM25.2339 33.7344C25.6409 34.1726 25.975 34.6909 26.2093 35.2767C25.8705 35.509 25.4966 35.7034 25.091 35.8513C24.8438 35.9415 24.5942 36.0109 24.3439 36.0606C24.8559 35.391 25.1683 34.5819 25.2339 33.7344ZM26.2526 29.1666C24.6162 27.9268 22.4032 27.5179 20.3311 28.2738C19.1151 28.7174 18.1203 29.4991 17.4141 30.4741C17.314 30.6124 17.2196 30.7546 17.1312 30.9002C16.1814 32.4659 15.9251 34.433 16.6015 36.2872C17.7845 39.5299 21.3722 41.1997 24.615 40.0168C27.0663 39.1225 28.6188 36.854 28.7195 34.3992C28.752 33.6067 28.6333 32.7947 28.3446 32.0033C27.9175 30.8327 27.1771 29.8671 26.2526 29.1666Z" fill="white"/>
<path fill-rule="evenodd" clip-rule="evenodd" d="M25.7891 24.0751C26.7355 26.6693 29.6057 28.0052 32.1999 27.0588C33.5026 26.5836 34.488 25.6232 35.0264 24.4563C34.5769 24.7772 34.0771 25.0434 33.533 25.2419C33.1256 25.3905 32.7129 25.4941 32.3001 25.5552C32.2441 25.5635 32.1881 25.571 32.132 25.5777C30.0478 25.8285 27.9826 25.0045 26.6386 23.4325L26.6386 23.4321C26.1821 22.8982 25.8088 22.2779 25.5462 21.5842C25.4179 22.3951 25.4878 23.2491 25.7891 24.0751ZM28.3022 19.2343L28.3025 19.2342C28.9556 18.5274 29.7822 17.9614 30.7485 17.6089C30.9378 17.5399 31.1284 17.4805 31.3196 17.4306C30.4921 17.29 29.6178 17.3561 28.7728 17.6644C28.7424 17.6755 28.7122 17.6868 28.6821 17.6984C27.7227 18.0692 26.9411 18.7057 26.3908 19.4926C26.4038 20.0209 26.5016 20.5571 26.6938 21.0839C26.7611 21.2682 26.838 21.4462 26.9239 21.6174C27.2001 20.7351 27.6698 19.9187 28.3022 19.2343ZM32.994 20.1163C32.994 20.1163 32.994 20.1163 32.994 20.1163L32.9938 20.1157C32.2103 19.6061 31.3176 19.2747 30.384 19.1531C30.6329 19.0093 30.8976 18.8851 31.1768 18.7832C32.0234 18.4744 32.8962 18.4086 33.7227 18.5491C34.3379 19.0704 34.835 19.7476 35.1464 20.5493C35.1591 20.582 35.1715 20.6149 35.1836 20.648C35.3752 21.1735 35.4733 21.7102 35.4862 22.24C35.3966 22.3683 35.3008 22.4926 35.1991 22.6123C34.6907 21.5671 33.9184 20.7177 32.994 20.1163ZM29.1504 20.3699C30.1281 20.2846 31.0945 20.4929 31.9358 20.9417C32.2271 22.2536 31.6393 23.6051 30.5001 24.2912C30.3625 24.2662 30.2263 24.2354 30.0918 24.1991C29.3546 23.9998 28.6684 23.6338 28.0916 23.1285C28.0318 23.0761 27.9731 23.0221 27.9157 22.9667C28.0137 22.0263 28.378 21.1311 28.9587 20.3904C29.0226 20.3823 29.0865 20.3754 29.1504 20.3699ZM33.2472 21.9508C33.6542 22.3889 33.9883 22.9072 34.2227 23.493C33.8838 23.7253 33.5099 23.9197 33.1043 24.0676C32.8572 24.1578 32.6075 24.2272 32.3572 24.2769C32.8692 23.6073 33.1816 22.7982 33.2472 21.9508ZM34.2659 17.3829C32.6295 16.1431 30.4165 15.7342 28.3444 16.4901C27.1284 16.9337 26.1336 17.7155 25.4274 18.6904C25.3273 18.8287 25.2329 18.9709 25.1446 19.1165C24.1947 20.6822 23.9384 22.6493 24.6148 24.5035C25.7978 27.7462 29.3855 29.416 32.6283 28.2331C35.0796 27.3388 36.6321 25.0703 36.7328 22.6155C36.7653 21.823 36.6466 21.011 36.3579 20.2197C35.9308 19.049 35.1904 18.0834 34.2659 17.3829Z" fill="white"/>
</g>
<rect x="0.5" y="0.5" width="71" height="71" rx="23.5" stroke="#004B74"/>
<defs>
<clipPath id="clip0_281_5343">
<rect width="40" height="40" fill="white" transform="translate(16 16)"/>
</clipPath>
</defs>
</svg>
