<svg width="355" height="310" viewBox="0 0 355 310" fill="none" xmlns="http://www.w3.org/2000/svg">
<g clip-path="url(#clip0_436_3498)">
<path d="M68.2345 274.904C58.9915 267.846 50.4248 259.823 42.7722 251.056C35.0918 242.26 28.2844 232.66 22.5392 222.526C10.6357 201.529 3.38905 178.693 1 154.653C1.12169 154.678 13.3902 157.317 31.5097 164.179C40.5146 196.446 54.4513 224.458 72.9322 247.435C68.0187 257.813 66.4383 267.055 68.2345 274.904Z" fill="#6F7375"/>
<path d="M68.2345 274.904C58.9915 267.846 50.4248 259.823 42.7722 251.056C35.0918 242.26 28.2844 232.66 22.5392 222.526C10.6359 201.529 3.38905 178.693 1 154.653C1.12232 154.678 13.4335 157.333 31.5097 164.179C40.5146 196.446 54.4511 224.458 72.9322 247.435C68.0187 257.813 66.4383 267.057 68.2345 274.904Z" fill="#6F7375"/>
<path d="M68.2345 274.904C58.9915 267.846 50.4248 259.823 42.7722 251.056C35.0918 242.26 28.2844 232.66 22.5392 222.526C10.6359 201.529 3.38905 178.693 1 154.653C1.12232 154.678 13.4335 157.333 31.5097 164.179C40.5146 196.446 54.4511 224.458 72.9322 247.435C68.0187 257.813 66.4383 267.057 68.2345 274.904Z" fill="#6F7375"/>
<path d="M72.9322 247.435C51.9931 221.402 39.2281 191.838 31.5097 164.179C13.2245 157.253 1 154.653 1 154.653C5.86688 203.627 31.1592 246.589 68.2345 274.904C66.3147 266.517 68.3288 257.16 72.9322 247.435Z" fill="#6F7375"/>
<path d="M278.086 274.907C279.881 267.057 278.301 257.816 273.387 247.435C291.87 224.458 305.807 196.447 314.812 164.179C332.932 157.317 345.2 154.678 345.322 154.653C342.933 178.693 335.684 201.529 323.781 222.526C318.037 232.662 311.229 242.26 303.548 251.058C295.894 259.823 287.328 267.848 278.086 274.907Z" fill="#6F7375"/>
<path d="M278.086 274.907C279.881 267.057 278.301 257.816 273.387 247.435C291.87 224.458 305.807 196.447 314.812 164.179C332.888 157.334 345.2 154.678 345.322 154.653C342.933 178.693 335.684 201.529 323.781 222.526C318.037 232.662 311.229 242.26 303.548 251.058C295.894 259.823 287.328 267.848 278.086 274.907Z" fill="#6F7375"/>
<path d="M278.086 274.907C279.881 267.057 278.301 257.816 273.387 247.435C291.87 224.458 305.807 196.447 314.812 164.179C332.888 157.334 345.2 154.678 345.322 154.653C342.933 178.693 335.684 201.529 323.781 222.526C318.037 232.662 311.229 242.26 303.548 251.058C295.894 259.823 287.328 267.848 278.086 274.907Z" fill="#6F7375"/>
<path d="M345.32 154.653C345.32 154.653 333.097 157.253 314.812 164.179C307.093 191.839 294.327 221.404 273.387 247.435C277.991 257.16 280.005 266.519 278.084 274.907C315.162 246.59 340.455 203.63 345.32 154.653Z" fill="#6F7375"/>
<path d="M145.985 308.195C117.957 303.867 91.0715 292.356 68.2345 274.905C66.4383 267.055 68.0188 257.814 72.9323 247.435C74.6736 249.599 76.252 251.493 77.7576 253.222C91.4446 268.941 104.696 281.75 117.143 291.298C127.312 299.099 137.016 304.785 145.985 308.195Z" fill="#3F4143"/>
<path d="M145.985 308.195C117.958 303.867 91.0718 292.356 68.2345 274.905C66.4383 267.057 68.0188 257.814 72.9323 247.435C74.6751 249.601 76.2535 251.495 77.7576 253.222C91.4448 268.941 104.696 281.75 117.143 291.298C127.313 299.101 137.017 304.785 145.985 308.195Z" fill="#3F4143"/>
<path d="M145.985 308.195C117.958 303.867 91.0718 292.356 68.2345 274.905C66.4383 267.057 68.0188 257.814 72.9323 247.435C74.6751 249.601 76.2535 251.495 77.7576 253.222C91.4448 268.941 104.696 281.75 117.143 291.298C127.313 299.101 137.017 304.785 145.985 308.195Z" fill="#3F4143"/>
<path d="M77.7573 253.222C76.098 251.316 74.4987 249.382 72.9322 247.435C68.3287 257.16 66.3147 266.517 68.2345 274.905C90.865 292.198 117.819 303.846 145.985 308.195C130.235 302.205 107.565 287.453 77.7573 253.222Z" fill="#3F4143"/>
<path d="M105.249 204.735C78.1197 184.025 50.1752 171.251 31.5097 164.179C23.8195 136.623 20.4317 110.15 18.944 92.7927C17.3349 74.0207 17.5411 61.5398 17.5434 61.4154C17.6664 61.4807 30.0319 68.1346 47.4459 79.5209C63.5448 90.0489 87.4078 106.91 109.667 127.452C103.047 154.71 101.571 180.701 105.282 204.701L105.249 204.735Z" fill="#A6A9A7"/>
<path d="M105.249 204.735C78.1197 184.025 50.1752 171.251 31.5097 164.179C23.8195 136.623 20.4317 110.15 18.944 92.7927C17.3319 73.987 17.5411 61.5398 17.5434 61.4154C17.666 61.4807 30.0033 68.1156 47.4459 79.5209C63.5446 90.0489 87.4076 106.91 109.667 127.452C103.046 154.712 101.571 180.703 105.282 204.701L105.249 204.735Z" fill="#A6A9A7"/>
<path d="M105.249 204.735C78.1197 184.025 50.1752 171.251 31.5097 164.179C23.8195 136.623 20.4317 110.15 18.944 92.7927C17.3319 73.987 17.5411 61.5398 17.5434 61.4154C17.666 61.4807 30.0033 68.1156 47.4459 79.5209C63.5446 90.0489 87.4076 106.91 109.667 127.452C103.046 154.712 101.571 180.703 105.282 204.701L105.249 204.735Z" fill="#A6A9A7"/>
<path d="M105.282 204.701C101.207 178.345 103.699 152.023 109.667 127.452C66.5756 87.6868 17.5434 61.4154 17.5434 61.4154C17.5434 61.4154 16.6227 110.833 31.5097 164.179C51.5127 171.757 78.7693 184.522 105.249 204.735C105.26 204.724 105.271 204.714 105.282 204.701Z" fill="#A6A9A7"/>
<path d="M105.249 204.734L105.269 204.715L105.293 204.769L105.249 204.734Z" fill="#A6A9A7"/>
<path d="M105.249 204.734L105.269 204.715L105.293 204.769L105.249 204.734Z" fill="#A6A9A7"/>
<path d="M105.249 204.734L105.269 204.715L105.293 204.769L105.249 204.734Z" fill="#A6A9A7"/>
<path d="M105.249 204.734C105.264 204.747 105.278 204.758 105.293 204.769C105.29 204.747 105.286 204.724 105.283 204.7C105.271 204.713 105.26 204.724 105.249 204.734Z" fill="#A6A9A7"/>
<path d="M241.04 204.703C244.75 180.703 243.275 154.712 236.653 127.451C258.914 106.91 282.777 90.0487 298.874 79.5207C316.29 68.1344 328.655 61.4806 328.778 61.4152C328.78 61.5396 328.986 74.0226 327.377 92.7925C325.89 110.149 322.501 136.623 314.812 164.179C296.145 171.251 268.201 184.027 241.072 204.737L241.04 204.703Z" fill="#A6A9A7"/>
<path d="M241.04 204.703C244.75 180.703 243.275 154.712 236.653 127.451C258.914 106.91 282.777 90.0487 298.874 79.5207C316.318 68.1154 328.655 61.4806 328.778 61.4152C328.78 61.5396 328.988 73.9868 327.377 92.7925C325.89 110.149 322.501 136.623 314.812 164.179C296.145 171.251 268.201 184.027 241.072 204.737L241.04 204.703Z" fill="#A6A9A7"/>
<path d="M241.04 204.703C244.75 180.703 243.275 154.712 236.653 127.451C258.914 106.91 282.777 90.0487 298.874 79.5207C316.318 68.1154 328.655 61.4806 328.778 61.4152C328.78 61.5396 328.988 73.9868 327.377 92.7925C325.89 110.149 322.501 136.623 314.812 164.179C296.145 171.251 268.201 184.027 241.072 204.737L241.04 204.703Z" fill="#A6A9A7"/>
<path d="M241.04 204.703C241.051 204.714 241.061 204.724 241.072 204.737C267.552 184.522 294.808 171.757 314.812 164.179C329.699 110.833 328.778 61.4152 328.778 61.4152C328.778 61.4152 279.746 87.6867 236.653 127.451C242.622 152.023 245.115 178.345 241.04 204.703Z" fill="#A6A9A7"/>
<path d="M241.038 204.711L241.072 204.736L241.029 204.769L241.038 204.711Z" fill="#A6A9A7"/>
<path d="M241.038 204.711L241.072 204.736L241.029 204.769L241.038 204.711Z" fill="#A6A9A7"/>
<path d="M241.038 204.711L241.072 204.736L241.029 204.769L241.038 204.711Z" fill="#A6A9A7"/>
<path d="M241.029 204.769C241.044 204.758 241.057 204.747 241.072 204.736C241.062 204.724 241.051 204.713 241.04 204.702C241.036 204.724 241.032 204.747 241.029 204.769Z" fill="#A6A9A7"/>
<path d="M169.94 310.209C169.67 310.207 169.4 310.204 169.13 310.2C161.418 310.051 154.471 309.49 147.895 308.488C147.257 308.393 146.621 308.294 145.985 308.195C137.017 304.784 127.313 299.101 117.143 291.3C104.696 281.75 91.4444 268.94 77.7576 253.222C76.252 251.493 74.6736 249.601 72.9323 247.435C78.8819 234.868 89.7547 220.501 105.249 204.735L105.292 204.768C105.722 207.542 106.128 209.849 106.568 212.032C114.033 248.987 125.707 276.28 141.267 293.149C153.538 306.455 164.826 309.551 170.461 310.213L169.94 310.209Z" fill="#28292A"/>
<path d="M169.94 310.209C169.67 310.207 169.4 310.204 169.13 310.2C161.418 310.051 154.471 309.49 147.895 308.488C147.257 308.393 146.621 308.294 145.985 308.195C137.017 304.784 127.313 299.101 117.143 291.3C104.696 281.75 91.4448 268.94 77.7576 253.222C76.2535 251.495 74.6751 249.601 72.9323 247.435C78.8819 234.868 89.7549 220.501 105.249 204.735L105.292 204.768C105.722 207.542 106.128 209.849 106.568 212.032C114.033 248.987 125.707 276.28 141.267 293.149C153.538 306.455 164.826 309.551 170.461 310.213L169.94 310.209Z" fill="#28292A"/>
<path d="M169.94 310.209C169.67 310.207 169.4 310.204 169.13 310.2C161.418 310.051 154.471 309.49 147.895 308.488C147.257 308.393 146.621 308.294 145.985 308.195C137.017 304.784 127.313 299.101 117.143 291.3C104.696 281.75 91.4448 268.94 77.7576 253.222C76.2535 251.495 74.6751 249.601 72.9323 247.435C78.8819 234.868 89.7549 220.501 105.249 204.735L105.292 204.768C105.722 207.542 106.128 209.849 106.568 212.032C114.033 248.987 125.707 276.28 141.267 293.149C153.538 306.455 164.826 309.551 170.461 310.213L169.94 310.209Z" fill="#28292A"/>
<path d="M106.568 212.032C106.08 209.611 105.668 207.19 105.292 204.768C105.278 204.758 105.263 204.747 105.249 204.735C91.6939 218.527 79.5934 233.364 72.9323 247.435C74.4988 249.382 76.098 251.316 77.7574 253.222C107.565 287.453 130.235 302.205 145.985 308.195C146.621 308.294 147.257 308.393 147.895 308.488C154.934 309.561 161.994 310.061 169.128 310.2C169.571 310.207 170.016 310.209 170.461 310.213C160.309 309.021 124.059 298.63 106.568 212.032Z" fill="#28292A"/>
<path d="M175.86 310.213C181.495 309.551 192.782 306.455 205.054 293.149C220.615 276.28 232.288 248.987 239.753 212.032C240.194 209.845 240.599 207.538 241.029 204.768L241.072 204.735C256.566 220.501 267.44 234.868 273.389 247.435C271.645 249.601 270.068 251.495 268.564 253.222C254.877 268.94 241.626 281.75 229.179 291.3C219.007 299.101 209.304 304.784 200.337 308.195C199.7 308.294 199.065 308.393 198.426 308.488C191.85 309.49 184.903 310.051 177.191 310.2C176.923 310.204 176.651 310.207 176.381 310.209L175.86 310.213Z" fill="#28292A"/>
<path d="M175.86 310.213C181.495 309.551 192.782 306.455 205.054 293.149C220.615 276.28 232.288 248.987 239.753 212.032C240.194 209.847 240.599 207.54 241.029 204.768L241.072 204.735C256.566 220.501 267.44 234.868 273.389 247.435C271.645 249.601 270.068 251.495 268.564 253.222C254.877 268.94 241.624 281.75 229.179 291.3C219.007 299.101 209.304 304.784 200.337 308.195C199.7 308.294 199.065 308.393 198.426 308.488C191.85 309.49 184.903 310.051 177.191 310.2C176.923 310.204 176.651 310.207 176.381 310.209L175.86 310.213Z" fill="#28292A"/>
<path d="M175.86 310.213C181.495 309.551 192.782 306.455 205.054 293.149C220.615 276.28 232.288 248.987 239.753 212.032C240.194 209.847 240.599 207.54 241.029 204.768L241.072 204.735C256.566 220.501 267.44 234.868 273.389 247.435C271.645 249.601 270.068 251.495 268.564 253.222C254.877 268.94 241.624 281.75 229.179 291.3C219.007 299.101 209.304 304.784 200.337 308.195C199.7 308.294 199.065 308.393 198.426 308.488C191.85 309.49 184.903 310.051 177.191 310.2C176.923 310.204 176.651 310.207 176.381 310.209L175.86 310.213Z" fill="#28292A"/>
<path d="M239.753 212.032C240.241 209.611 240.654 207.19 241.029 204.768C241.044 204.758 241.057 204.747 241.072 204.735C254.628 218.527 266.727 233.364 273.389 247.435C271.822 249.382 270.224 251.316 268.564 253.222C238.756 287.453 216.087 302.205 200.337 308.195C199.7 308.294 199.063 308.393 198.426 308.488C191.386 309.561 184.325 310.061 177.191 310.2C176.748 310.207 176.303 310.209 175.86 310.213C186.013 309.021 222.262 298.63 239.753 212.032Z" fill="#28292A"/>
<path d="M199.683 168.009C184.589 156.051 173.272 148.322 173.161 148.246C173.076 148.303 164.571 154.117 152.64 163.317C150.631 164.865 148.612 166.444 146.637 168.009C136.416 154.303 123.978 140.658 109.667 127.452C113.604 111.244 119.391 94.4567 126.869 77.5596C132.851 64.0411 139.922 50.4214 147.885 37.0779C161.433 14.3811 173.045 0.141312 173.161 1.52588e-05C173.277 0.141312 184.893 14.3896 198.435 37.08C206.4 50.4214 213.472 64.0411 219.453 77.5596C226.931 94.4567 232.718 111.244 236.653 127.452C222.344 140.658 209.905 154.303 199.683 168.009Z" fill="#A6A9A7"/>
<path d="M199.683 168.009C184.642 156.091 173.272 148.322 173.161 148.246C173.076 148.303 164.596 154.096 152.64 163.317C150.633 164.865 148.613 166.442 146.637 168.009C136.416 154.303 123.978 140.658 109.667 127.452C113.604 111.242 119.391 94.4567 126.869 77.5596C132.851 64.0411 139.922 50.4214 147.885 37.0779C161.445 14.3622 173.045 0.141312 173.161 1.52588e-05C173.277 0.141312 184.876 14.3621 198.435 37.08C206.398 50.4214 213.469 64.0411 219.453 77.5596C226.931 94.4567 232.718 111.242 236.653 127.452C222.344 140.658 209.905 154.303 199.683 168.009Z" fill="#A6A9A7"/>
<path d="M199.683 168.009C184.642 156.091 173.272 148.322 173.161 148.246C173.076 148.303 164.596 154.096 152.64 163.317C150.633 164.865 148.613 166.442 146.637 168.009C136.416 154.303 123.978 140.658 109.667 127.452C113.604 111.242 119.391 94.4567 126.869 77.5596C132.851 64.0411 139.922 50.4214 147.885 37.0779C161.445 14.3622 173.045 0.141312 173.161 1.52588e-05C173.277 0.141312 184.876 14.3621 198.435 37.08C206.398 50.4214 213.469 64.0411 219.453 77.5596C226.931 94.4567 232.718 111.242 236.653 127.452C222.344 140.658 209.905 154.303 199.683 168.009Z" fill="#A6A9A7"/>
<path d="M146.637 168.009C161.852 155.954 173.161 148.246 173.161 148.246C173.161 148.246 184.467 155.954 199.683 168.009C210.82 153.076 223.597 139.5 236.653 127.452C219.396 56.3919 173.161 1.52588e-05 173.161 1.52588e-05C173.161 1.52588e-05 126.925 56.3919 109.667 127.452C122.723 139.5 135.501 153.076 146.637 168.009Z" fill="#A6A9A7"/>
<path d="M72.9322 247.435C54.4508 224.458 40.5141 196.447 31.5096 164.179C50.1753 171.251 78.1203 184.027 105.249 204.735C89.7549 220.502 78.8818 234.868 72.9322 247.435Z" fill="#565A5B"/>
<path d="M72.9322 247.435C54.4511 224.458 40.5143 196.447 31.5096 164.179C50.1751 171.251 78.1196 184.025 105.249 204.735C89.7549 220.502 78.8818 234.868 72.9322 247.435Z" fill="#565A5B"/>
<path d="M72.9322 247.435C54.4511 224.458 40.5143 196.447 31.5096 164.179C50.1751 171.251 78.1196 184.025 105.249 204.735C89.7549 220.502 78.8818 234.868 72.9322 247.435Z" fill="#565A5B"/>
<path d="M105.249 204.735C78.7692 184.523 51.5126 171.757 31.5096 164.179C39.2281 191.839 51.993 221.402 72.9322 247.435C79.5934 233.364 91.6938 218.528 105.249 204.735Z" fill="#565A5B"/>
<path d="M273.387 247.435C267.438 234.87 256.566 220.504 241.072 204.737C268.201 184.027 296.145 171.251 314.812 164.179C305.807 196.447 291.871 224.458 273.387 247.435Z" fill="#565A5B"/>
<path d="M273.387 247.435C267.44 234.87 256.566 220.504 241.072 204.737C268.201 184.027 296.145 171.251 314.812 164.179C305.807 196.447 291.871 224.458 273.387 247.435Z" fill="#565A5B"/>
<path d="M273.387 247.435C267.44 234.87 256.566 220.504 241.072 204.737C268.201 184.027 296.145 171.251 314.812 164.179C305.807 196.447 291.871 224.458 273.387 247.435Z" fill="#565A5B"/>
<path d="M273.387 247.435C294.327 221.404 307.093 191.839 314.812 164.179C294.808 171.757 267.552 184.523 241.072 204.737C254.626 218.53 266.727 233.366 273.387 247.435Z" fill="#565A5B"/>
<path d="M173.161 215.069C172.629 213.73 172.214 212.696 171.815 211.722C165.845 197.113 157.373 182.405 146.637 168.009C161.726 156.056 173.047 148.322 173.161 148.246C173.272 148.322 184.6 156.06 199.683 168.009C188.948 182.405 180.477 197.113 174.506 211.722C174.101 212.715 173.673 213.778 173.161 215.069Z" fill="#565A5B"/>
<path d="M173.161 215.069C172.633 213.738 172.218 212.707 171.815 211.722C165.845 197.113 157.373 182.405 146.637 168.009C161.679 156.091 173.047 148.322 173.161 148.246C173.272 148.322 184.642 156.091 199.683 168.009C188.948 182.405 180.477 197.113 174.506 211.722C174.105 212.703 173.677 213.766 173.161 215.069Z" fill="#565A5B"/>
<path d="M173.161 215.069C172.633 213.738 172.218 212.707 171.815 211.722C165.845 197.113 157.373 182.405 146.637 168.009C161.679 156.091 173.047 148.322 173.161 148.246C173.272 148.322 184.642 156.091 199.683 168.009C188.948 182.405 180.477 197.113 174.506 211.722C174.105 212.703 173.677 213.766 173.161 215.069Z" fill="#565A5B"/>
<path d="M173.161 215.069C173.599 213.964 174.044 212.852 174.506 211.722C180.879 196.13 189.611 181.517 199.683 168.009C184.467 155.954 173.161 148.246 173.161 148.246C173.161 148.246 161.852 155.954 146.637 168.009C156.711 181.517 165.442 196.13 171.815 211.722C172.277 212.852 172.722 213.964 173.161 215.069Z" fill="#565A5B"/>
<path d="M105.282 204.701C101.571 180.701 103.046 154.71 109.667 127.452C123.978 140.658 136.416 154.303 146.637 168.009C130.786 180.566 116.872 192.912 105.282 204.701Z" fill="#8A8D8D"/>
<path d="M105.282 204.701C101.571 180.703 103.046 154.712 109.667 127.452C123.978 140.658 136.416 154.303 146.637 168.009C130.786 180.566 116.872 192.912 105.282 204.701Z" fill="#8A8D8D"/>
<path d="M105.282 204.701C101.571 180.703 103.046 154.712 109.667 127.452C123.978 140.658 136.416 154.303 146.637 168.009C130.786 180.566 116.872 192.912 105.282 204.701Z" fill="#8A8D8D"/>
<path d="M105.282 204.701C118.969 190.78 134.123 177.924 146.637 168.009C135.501 153.076 122.723 139.5 109.667 127.452C103.699 152.023 101.207 178.345 105.282 204.701Z" fill="#8A8D8D"/>
<path d="M241.04 204.703C229.449 192.912 215.534 180.566 199.683 168.009C209.905 154.303 222.344 140.658 236.653 127.451C243.275 154.712 244.75 180.703 241.04 204.703Z" fill="#8A8D8D"/>
<path d="M241.04 204.703C229.449 192.912 215.534 180.566 199.683 168.009C209.905 154.303 222.344 140.658 236.653 127.451C243.275 154.712 244.75 180.703 241.04 204.703Z" fill="#8A8D8D"/>
<path d="M241.04 204.703C229.449 192.912 215.534 180.566 199.683 168.009C209.905 154.303 222.344 140.658 236.653 127.451C243.275 154.712 244.75 180.703 241.04 204.703Z" fill="#8A8D8D"/>
<path d="M199.683 168.009C212.198 177.923 227.353 190.78 241.04 204.703C245.114 178.345 242.622 152.023 236.653 127.451C223.597 139.5 210.82 153.075 199.683 168.009Z" fill="#8A8D8D"/>
<path d="M159.488 262.799C145.521 241.091 127.287 221.567 105.292 204.769L105.282 204.701C116.873 192.912 130.786 180.566 146.637 168.009C157.373 182.405 165.845 197.113 171.815 211.722C172.214 212.696 172.629 213.73 173.161 215.069C166.022 233.056 161.42 249.116 159.488 262.799Z" fill="#3F4143"/>
<path d="M159.488 262.799C145.522 241.091 127.288 221.567 105.292 204.769L105.282 204.701C116.873 192.912 130.786 180.566 146.637 168.009C157.373 182.405 165.845 197.113 171.815 211.722C172.218 212.707 172.633 213.738 173.161 215.069C166.022 233.056 161.42 249.116 159.488 262.799Z" fill="#3F4143"/>
<path d="M159.488 262.799C145.522 241.091 127.288 221.567 105.292 204.769L105.282 204.701C116.873 192.912 130.786 180.566 146.637 168.009C157.373 182.405 165.845 197.113 171.815 211.722C172.218 212.707 172.633 213.738 173.161 215.069C166.022 233.056 161.42 249.116 159.488 262.799Z" fill="#3F4143"/>
<path d="M159.488 262.799C161.249 250.329 165.376 234.68 173.161 215.069C172.722 213.964 172.277 212.852 171.815 211.722C165.442 196.13 156.711 181.517 146.637 168.009C134.123 177.923 118.969 190.78 105.282 204.701C105.285 204.724 105.289 204.747 105.292 204.769C124.878 219.727 144.024 238.763 159.488 262.799Z" fill="#3F4143"/>
<path d="M186.833 262.799C184.901 249.116 180.299 233.056 173.161 215.069C173.681 213.757 174.107 212.694 174.506 211.722C180.477 197.113 188.948 182.405 199.683 168.009C215.534 180.566 229.449 192.912 241.04 204.703L241.029 204.769C219.033 221.567 200.801 241.091 186.833 262.799Z" fill="#3F4143"/>
<path d="M186.833 262.799C184.901 249.116 180.299 233.056 173.161 215.069C173.679 213.763 174.105 212.7 174.506 211.722C180.477 197.113 188.948 182.405 199.683 168.009C215.534 180.566 229.449 192.912 241.04 204.703L241.029 204.769C219.033 221.567 200.799 241.091 186.833 262.799Z" fill="#3F4143"/>
<path d="M186.833 262.799C184.901 249.116 180.299 233.056 173.161 215.069C173.679 213.763 174.105 212.7 174.506 211.722C180.477 197.113 188.948 182.405 199.683 168.009C215.534 180.566 229.449 192.912 241.04 204.703L241.029 204.769C219.033 221.567 200.799 241.091 186.833 262.799Z" fill="#3F4143"/>
<path d="M199.683 168.009C189.611 181.517 180.879 196.13 174.506 211.722C174.044 212.852 173.599 213.964 173.161 215.069C180.945 234.68 185.072 250.329 186.833 262.799C202.296 238.765 221.443 219.727 241.029 204.769C241.031 204.747 241.036 204.724 241.04 204.703C227.353 190.78 212.198 177.923 199.683 168.009Z" fill="#3F4143"/>
<path d="M172.966 310.24C172.38 310.238 171.798 310.232 171.214 310.224L170.461 310.213C167.871 309.909 163.721 309.026 158.655 306.548C152.571 303.572 146.721 299.063 141.267 293.149C134.262 285.555 127.949 275.66 122.503 263.74C115.972 249.441 110.61 232.044 106.568 212.032C106.128 209.849 105.722 207.542 105.292 204.769C127.287 221.567 145.521 241.091 159.488 262.799C154.077 301.109 171.016 309.418 172.966 310.24Z" fill="#1D1E1F"/>
<path d="M172.966 310.24C172.38 310.238 171.798 310.232 171.214 310.224L170.461 310.213C167.871 309.909 163.721 309.026 158.655 306.548C152.571 303.572 146.721 299.063 141.267 293.149C134.262 285.555 127.949 275.66 122.503 263.74C115.972 249.443 110.61 232.044 106.568 212.032C106.128 209.849 105.722 207.542 105.292 204.769C127.288 221.567 145.522 241.091 159.488 262.799C154.077 301.111 171.016 309.418 172.966 310.24Z" fill="#1D1E1F"/>
<path d="M172.966 310.24C172.38 310.238 171.798 310.232 171.214 310.224L170.461 310.213C167.871 309.909 163.721 309.026 158.655 306.548C152.571 303.572 146.721 299.063 141.267 293.149C134.262 285.555 127.949 275.66 122.503 263.74C115.972 249.443 110.61 232.044 106.568 212.032C106.128 209.849 105.722 207.542 105.292 204.769C127.288 221.567 145.522 241.091 159.488 262.799C154.077 301.111 171.016 309.418 172.966 310.24Z" fill="#1D1E1F"/>
<path d="M159.488 262.799C144.024 238.763 124.878 219.727 105.292 204.769C105.668 207.19 106.08 209.611 106.568 212.032C124.059 298.63 160.308 309.021 170.461 310.213C171.296 310.224 172.127 310.238 172.966 310.238C170.988 309.407 154.079 301.096 159.488 262.799Z" fill="#1D1E1F"/>
<path d="M173.355 310.24C175.305 309.418 192.245 301.107 186.833 262.799C200.801 241.091 219.033 221.567 241.029 204.769C240.597 207.548 240.192 209.855 239.754 212.032C235.711 232.046 230.35 249.443 223.818 263.74C218.373 275.66 212.061 285.555 205.055 293.149C199.601 299.063 193.75 303.572 187.666 306.548C182.6 309.026 178.45 309.909 175.86 310.213L175.109 310.224C174.525 310.232 173.941 310.238 173.355 310.24Z" fill="#1D1E1F"/>
<path d="M173.355 310.24C175.305 309.418 192.245 301.107 186.833 262.799C200.799 241.091 219.033 221.567 241.029 204.769C240.599 207.546 240.192 209.853 239.754 212.032C235.711 232.044 230.35 249.443 223.818 263.74C218.373 275.66 212.058 285.555 205.055 293.149C199.601 299.063 193.75 303.572 187.666 306.548C182.6 309.026 178.45 309.909 175.86 310.213L175.109 310.224C174.525 310.232 173.941 310.238 173.355 310.24Z" fill="#1D1E1F"/>
<path d="M173.355 310.24C175.305 309.418 192.245 301.107 186.833 262.799C200.799 241.091 219.033 221.567 241.029 204.769C240.599 207.546 240.192 209.853 239.754 212.032C235.711 232.044 230.35 249.443 223.818 263.74C218.373 275.66 212.058 285.555 205.055 293.149C199.601 299.063 193.75 303.572 187.666 306.548C182.6 309.026 178.45 309.909 175.86 310.213L175.109 310.224C174.525 310.232 173.941 310.238 173.355 310.24Z" fill="#1D1E1F"/>
<path d="M186.833 262.799C192.243 301.096 175.333 309.407 173.355 310.238C174.194 310.238 175.025 310.224 175.86 310.213C186.013 309.021 222.262 298.63 239.754 212.032C240.241 209.611 240.654 207.19 241.029 204.769C221.443 219.727 202.296 238.765 186.833 262.799Z" fill="#1D1E1F"/>
<path d="M173.161 287.556C169.217 279.099 164.617 270.771 159.488 262.799C161.42 249.116 166.022 233.056 173.161 215.069C180.299 233.056 184.901 249.116 186.833 262.799C181.704 270.771 177.104 279.099 173.161 287.556Z" fill="#28292A"/>
<path d="M173.161 287.556C169.217 279.099 164.617 270.771 159.488 262.799C161.42 249.116 166.022 233.056 173.161 215.069C180.299 233.056 184.901 249.116 186.833 262.799C181.706 270.769 177.104 279.099 173.161 287.556Z" fill="#28292A"/>
<path d="M173.161 287.556C169.217 279.099 164.617 270.771 159.488 262.799C161.42 249.116 166.022 233.056 173.161 215.069C180.299 233.056 184.901 249.116 186.833 262.799C181.706 270.769 177.104 279.099 173.161 287.556Z" fill="#28292A"/>
<path d="M173.161 287.556C177.263 278.764 181.86 270.529 186.833 262.799C185.072 250.329 180.945 234.68 173.161 215.069C165.376 234.68 161.249 250.329 159.488 262.799C164.461 270.529 169.059 278.764 173.161 287.556Z" fill="#28292A"/>
<path d="M172.967 310.24C171.016 309.418 154.077 301.111 159.488 262.799C164.617 270.771 169.217 279.099 173.161 287.556C177.104 279.099 181.706 270.769 186.833 262.799C192.245 301.107 175.305 309.418 173.355 310.24H173.161H172.967Z" fill="#151516"/>
<path d="M172.967 310.24C171.016 309.418 154.077 301.111 159.488 262.799C164.617 270.771 169.217 279.099 173.161 287.556C177.104 279.099 181.706 270.769 186.833 262.799C192.245 301.109 175.305 309.418 173.355 310.24C173.302 310.24 173.161 310.24 173.161 310.24H172.967Z" fill="#151516"/>
<path d="M172.967 310.24C171.016 309.418 154.077 301.111 159.488 262.799C164.617 270.771 169.217 279.099 173.161 287.556C177.104 279.099 181.706 270.769 186.833 262.799C192.245 301.109 175.305 309.418 173.355 310.24C173.302 310.24 173.161 310.24 173.161 310.24H172.967Z" fill="#151516"/>
<path d="M173.355 310.238C175.333 309.407 192.242 301.096 186.833 262.799C181.86 270.529 177.262 278.764 173.16 287.556C169.059 278.764 164.461 270.529 159.488 262.799C154.079 301.096 170.988 309.407 172.966 310.238C173.032 310.24 173.095 310.24 173.16 310.24C173.163 310.24 173.291 310.24 173.355 310.238Z" fill="#151516"/>
<path d="M200.335 308.193C209.304 304.785 219.008 299.099 229.177 291.298C241.626 281.75 254.877 268.938 268.564 253.22C270.068 251.495 271.645 249.603 273.387 247.435C278.301 257.816 279.883 267.057 278.086 274.907C255.25 292.356 228.365 303.867 200.335 308.193Z" fill="#3F4143"/>
<path d="M200.335 308.193C209.304 304.785 219.008 299.099 229.177 291.298C241.624 281.75 254.877 268.94 268.564 253.22C270.066 251.495 271.645 249.603 273.387 247.435C278.301 257.816 279.883 267.057 278.086 274.907C255.25 292.356 228.365 303.867 200.335 308.193Z" fill="#3F4143"/>
<path d="M200.335 308.193C209.304 304.785 219.008 299.099 229.177 291.298C241.624 281.75 254.877 268.94 268.564 253.22C270.066 251.495 271.645 249.603 273.387 247.435C278.301 257.816 279.883 267.057 278.086 274.907C255.25 292.356 228.365 303.867 200.335 308.193Z" fill="#3F4143"/>
<path d="M200.335 308.193C216.085 302.205 238.756 287.453 268.564 253.22C270.224 251.316 271.823 249.382 273.387 247.435C277.991 257.16 280.005 266.517 278.084 274.907C255.455 292.198 228.502 303.846 200.335 308.193Z" fill="#3F4143"/>
</g>
<defs>
<clipPath id="clip0_436_3498">
<rect width="355" height="310" fill="white"/>
</clipPath>
</defs>
</svg>
