<svg width="80" height="80" viewBox="0 0 80 80" fill="none" xmlns="http://www.w3.org/2000/svg">
<g clip-path="url(#clip0_281_5423)">
<path d="M39.376 27.2002H42.576V80.0002H39.376V27.2002Z" fill="#001D32"/>
<rect x="39.375" y="26.25" width="3.2" height="1.25" fill="#384E62"/>
<rect x="39.375" y="23.75" width="3.2" height="2.5" fill="#CDE5FF"/>
<rect x="39.375" y="21.25" width="3.2" height="2.5" fill="white"/>
<rect x="39.375" y="21.25" width="3.2" height="2.5" fill="#374E61" fill-opacity="0.3"/>
<path fill-rule="evenodd" clip-rule="evenodd" d="M27.1875 16.5625C27.1875 17.2529 27.7471 17.8125 28.4375 17.8125H37.5C38.7081 17.8125 39.6875 18.7919 39.6875 20H39.0625C39.0625 19.1371 38.3629 18.4375 37.5 18.4375H28.4375C27.402 18.4375 26.5625 17.598 26.5625 16.5625C26.5625 15.527 27.402 14.6875 28.4375 14.6875H43.125C43.6428 14.6875 44.0625 14.2678 44.0625 13.75C44.0625 13.2322 43.6428 12.8125 43.125 12.8125H31.5625C30.1818 12.8125 29.0625 11.6932 29.0625 10.3125C29.0625 8.93179 30.1818 7.8125 31.5625 7.8125H33.4375C35.5086 7.8125 37.1875 6.13357 37.1875 4.0625V2.5H37.8125V4.0625C37.8125 6.47875 35.8537 8.4375 33.4375 8.4375H31.5625C30.527 8.4375 29.6875 9.27697 29.6875 10.3125C29.6875 11.348 30.527 12.1875 31.5625 12.1875H43.125C43.9879 12.1875 44.6875 12.8871 44.6875 13.75C44.6875 14.6129 43.9879 15.3125 43.125 15.3125H28.4375C27.7471 15.3125 27.1875 15.8721 27.1875 16.5625Z" fill="#374E61" fill-opacity="0.2"/>
<path fill-rule="evenodd" clip-rule="evenodd" d="M28.125 17.8125C28.125 18.5029 28.6846 19.0625 29.375 19.0625H38.4375C39.6456 19.0625 40.625 20.0419 40.625 21.25H40C40 20.3871 39.3004 19.6875 38.4375 19.6875H29.375C28.3395 19.6875 27.5 18.848 27.5 17.8125C27.5 16.777 28.3395 15.9375 29.375 15.9375H44.0625C44.5803 15.9375 45 15.5178 45 15C45 14.4822 44.5803 14.0625 44.0625 14.0625H32.5C31.1193 14.0625 30 12.9432 30 11.5625C30 10.1818 31.1193 9.0625 32.5 9.0625H34.375C36.4461 9.0625 38.125 7.38357 38.125 5.3125V3.75H38.75V5.3125C38.75 7.72875 36.7912 9.6875 34.375 9.6875H32.5C31.4645 9.6875 30.625 10.527 30.625 11.5625C30.625 12.598 31.4645 13.4375 32.5 13.4375H44.0625C44.9254 13.4375 45.625 14.1371 45.625 15C45.625 15.8629 44.9254 16.5625 44.0625 16.5625H29.375C28.6846 16.5625 28.125 17.1221 28.125 17.8125Z" fill="#374E61" fill-opacity="0.12"/>
<rect x="35" y="11.25" width="6.25" height="0.625" fill="#374E61" fill-opacity="0.12"/>
<rect x="30" y="20" width="6.25" height="0.625" fill="#374E61" fill-opacity="0.12"/>
<path fill-rule="evenodd" clip-rule="evenodd" d="M48.4375 8.4375C48.4375 8.09232 48.1577 7.8125 47.8125 7.8125H43.125C40.8813 7.8125 39.0625 5.99366 39.0625 3.75V0L39.6875 0V3.75C39.6875 5.64848 41.2265 7.1875 43.125 7.1875H47.8125C48.5029 7.1875 49.0625 7.74714 49.0625 8.4375C49.0625 9.12786 48.5029 9.6875 47.8125 9.6875H37.5V9.0625H47.8125C48.1577 9.0625 48.4375 8.78268 48.4375 8.4375Z" fill="white"/>
<path fill-rule="evenodd" clip-rule="evenodd" d="M48.4375 8.4375C48.4375 8.09232 48.1577 7.8125 47.8125 7.8125H43.125C40.8813 7.8125 39.0625 5.99366 39.0625 3.75V0L39.6875 0V3.75C39.6875 5.64848 41.2265 7.1875 43.125 7.1875H47.8125C48.5029 7.1875 49.0625 7.74714 49.0625 8.4375C49.0625 9.12786 48.5029 9.6875 47.8125 9.6875H37.5V9.0625H47.8125C48.1577 9.0625 48.4375 8.78268 48.4375 8.4375Z" fill="#374E61" fill-opacity="0.2"/>
<path d="M44 51.9996C44 50.6741 45.0745 49.5996 46.4 49.5996C47.7255 49.5996 48.8 50.6741 48.8 51.9996V79.9996H44V51.9996Z" fill="white"/>
<path d="M44 51.9996C44 50.6741 45.0745 49.5996 46.4 49.5996C47.7255 49.5996 48.8 50.6741 48.8 51.9996V79.9996H44V51.9996Z" fill="#384E62" fill-opacity="0.1"/>
<path d="M33.5875 49.9907C34.0788 48.7868 35.2499 48 36.5502 48H37.6C39.3673 48 40.8 49.4327 40.8 51.2V80H28V70.7396C28 68.6663 28.4029 66.6128 29.1864 64.6932L33.5875 49.9907Z" fill="white"/>
<path d="M33.5875 49.9907C34.0788 48.7868 35.2499 48 36.5502 48H37.6C39.3673 48 40.8 49.4327 40.8 51.2V80H28V70.7396C28 68.6663 28.4029 66.6128 29.1864 64.6932L33.5875 49.9907Z" fill="#384E62" fill-opacity="0.1"/>
<path d="M35.1876 50.7903C35.6789 49.5865 36.05 49.5996 37.3503 49.5996C39.1176 49.5996 39.2001 50.2323 39.2001 51.9996V79.9996H29.6001V70.7392C29.6001 68.6659 30.003 66.6124 30.7865 64.6928L35.1876 50.7903Z" fill="white"/>
<path d="M35.1876 50.7903C35.6789 49.5865 36.05 49.5996 37.3503 49.5996C39.1176 49.5996 39.2001 50.2323 39.2001 51.9996V79.9996H29.6001V70.7392C29.6001 68.6659 30.003 66.6124 30.7865 64.6928L35.1876 50.7903Z" fill="#384E62" fill-opacity="0.06"/>
<path d="M41.6001 51.2C41.6001 49.4327 43.0328 48 44.8001 48H46.5825C47.9164 48 49.1104 48.8274 49.5788 50.0764L53.3814 64.4834C54.055 66.2798 54.4001 68.1828 54.4001 70.1014V80H41.6001V51.2Z" fill="white"/>
<path d="M41.6001 51.2C41.6001 49.4327 43.0328 48 44.8001 48H46.5825C47.9164 48 49.1104 48.8274 49.5788 50.0764L53.3814 64.4834C54.055 66.2798 54.4001 68.1828 54.4001 70.1014V80H41.6001V51.2Z" fill="#384E62" fill-opacity="0.1"/>
<path d="M43.2 51.1999C43.2 49.4326 44.015 49.5999 45.7823 49.5999C47.1163 49.5999 47.5102 49.6274 47.9786 50.8763L51.7812 64.4833C52.4549 66.2798 52.8 68.1827 52.8 70.1013V79.9999H43.2V51.1999Z" fill="white"/>
<path d="M43.2 51.1999C43.2 49.4326 44.015 49.5999 45.7823 49.5999C47.1163 49.5999 47.5102 49.6274 47.9786 50.8763L51.7812 64.4833C52.4549 66.2798 52.8 68.1827 52.8 70.1013V79.9999H43.2V51.1999Z" fill="#384E62" fill-opacity="0.06"/>
<path d="M34 66.0004C34 64.0122 35.6118 62.4004 37.6 62.4004C39.5882 62.4004 41.2 64.0122 41.2 66.0004V80.0004H34V66.0004Z" fill="white"/>
<path d="M34 66.0004C34 64.0122 35.6118 62.4004 37.6 62.4004C39.5882 62.4004 41.2 64.0122 41.2 66.0004V80.0004H34V66.0004Z" fill="#384E62" fill-opacity="0.1"/>
<path d="M35.6 66C35.6 64.0118 36.8 64 37.6 64C38.8 64 40.4 64.4 40.4 66V80H34V72.4C34.8837 72.4 35.6 71.6837 35.6 70.8V66Z" fill="white"/>
<path d="M35.6 66C35.6 64.0118 36.8 64 37.6 64C38.8 64 40.4 64.4 40.4 66V80H34V72.4C34.8837 72.4 35.6 71.6837 35.6 70.8V66Z" fill="#384E62" fill-opacity="0.06"/>
<path d="M41.2 66.0004C41.2 64.0122 42.8117 62.4004 44.8 62.4004L-nan -nanL44.8 62.4004C46.7882 62.4004 48.4 64.0122 48.4 66.0004V80.0004H41.2V66.0004Z" fill="white"/>
<path d="M41.2 66.0004C41.2 64.0122 42.8117 62.4004 44.8 62.4004L-nan -nanL44.8 62.4004C46.7882 62.4004 48.4 64.0122 48.4 66.0004V80.0004H41.2V66.0004Z" fill="#384E62" fill-opacity="0.1"/>
<path d="M42 66.8C42 64.8118 42.8118 64 44.8 64C46 64 46.8 64.8118 46.8 66.8V71.6C46.8 72.4837 47.5163 73.2 48.4 73.2V80H42V66.8Z" fill="white"/>
<path d="M42 66.8C42 64.8118 42.8118 64 44.8 64C46 64 46.8 64.8118 46.8 66.8V71.6C46.8 72.4837 47.5163 73.2 48.4 73.2V80H42V66.8Z" fill="#384E62" fill-opacity="0.06"/>
</g>
<defs>
<clipPath id="clip0_281_5423">
<rect width="80" height="80" fill="white"/>
</clipPath>
</defs>
</svg>
