<svg width="72" height="72" viewBox="0 0 72 72" fill="none" xmlns="http://www.w3.org/2000/svg">
<rect x="0.5" y="0.5" width="71" height="71" rx="23.5" fill="#003351"/>
<path fill-rule="evenodd" clip-rule="evenodd" d="M37.25 26.625H36V41C36 41.3452 36.2798 41.625 36.625 41.625C36.9702 41.625 37.25 41.3452 37.25 41V26.625ZM47.875 44.125C47.875 43.7798 47.5952 43.5 47.25 43.5H24.75C24.4048 43.5 24.125 43.7798 24.125 44.125V45.375H47.875V44.125ZM24.125 48.5V46H47.875V48.5C47.875 50.9162 45.9162 52.875 43.5 52.875H28.5C26.0838 52.875 24.125 50.9162 24.125 48.5ZM24.75 42.25C23.7145 42.25 22.875 43.0895 22.875 44.125V48.5C22.875 51.6066 25.3934 54.125 28.5 54.125H43.5C46.6066 54.125 49.125 51.6066 49.125 48.5V44.125C49.125 43.0895 48.2855 42.25 47.25 42.25H24.75ZM28.5 54.75V55.375C28.5 55.7202 28.7798 56 29.125 56H30.375C30.7202 56 31 55.7202 31 55.375V54.75H28.5ZM41 55.375V54.75H43.5V55.375C43.5 55.7202 43.2202 56 42.875 56H41.625C41.2798 56 41 55.7202 41 55.375ZM29.125 31H30.375V41C30.375 41.3452 30.0952 41.625 29.75 41.625C29.4048 41.625 29.125 41.3452 29.125 41V31ZM42.875 29.125H41.625V41C41.625 41.3452 41.9048 41.625 42.25 41.625C42.5952 41.625 42.875 41.3452 42.875 41V29.125Z" fill="white"/>
<path d="M29.125 29.75C29.125 29.4048 29.4048 29.125 29.75 29.125L-nan -nanL-nan -nanL29.75 29.125C30.0952 29.125 30.375 29.4048 30.375 29.75V30.375H29.125V29.75Z" fill="white"/>
<path d="M36 25.375C36 25.0298 36.2798 24.75 36.625 24.75L-nan -nanL-nan -nanL36.625 24.75C36.9702 24.75 37.25 25.0298 37.25 25.375V26H36V25.375Z" fill="white"/>
<path d="M41.625 27.875C41.625 27.5298 41.9048 27.25 42.25 27.25L-nan -nanL-nan -nanL42.25 27.25C42.5952 27.25 42.875 27.5298 42.875 27.875V28.5H41.625V27.875Z" fill="white"/>
<path fill-rule="evenodd" clip-rule="evenodd" d="M34.75 25.0625H30.375C29.8572 25.0625 29.4375 24.6428 29.4375 24.125C29.4375 23.6072 29.8572 23.1875 30.375 23.1875H38.1875C39.0504 23.1875 39.75 22.4879 39.75 21.625C39.75 20.7621 39.0504 20.0625 38.1875 20.0625H25.375C24.8572 20.0625 24.4375 19.6428 24.4375 19.125C24.4375 18.6072 24.8572 18.1875 25.375 18.1875H29.9062C30.5103 18.1875 31 17.6978 31 17.0938C31 16.4897 30.5103 16 29.9062 16H27.5625C27.3899 16 27.25 16.1399 27.25 16.3125C27.25 16.4851 27.3899 16.625 27.5625 16.625H29.9062C30.1651 16.625 30.375 16.8349 30.375 17.0938C30.375 17.3526 30.1651 17.5625 29.9062 17.5625H25.375C24.5121 17.5625 23.8125 18.2621 23.8125 19.125C23.8125 19.9879 24.5121 20.6875 25.375 20.6875H38.1875C38.7053 20.6875 39.125 21.1072 39.125 21.625C39.125 22.1428 38.7053 22.5625 38.1875 22.5625H30.375C29.5121 22.5625 28.8125 23.2621 28.8125 24.125C28.8125 24.9879 29.5121 25.6875 30.375 25.6875H34.75C34.9226 25.6875 35.0625 25.5476 35.0625 25.375C35.0625 25.2024 34.9226 25.0625 34.75 25.0625ZM28.1875 29.125H23.8125C23.2947 29.125 22.875 28.7053 22.875 28.1875C22.875 27.6697 23.2947 27.25 23.8125 27.25H33.1875C33.5978 27.25 33.9465 26.9864 34.0736 26.6193C34.1301 26.4563 33.9851 26.3125 33.8125 26.3125C33.6904 26.3125 33.5855 26.3973 33.4831 26.48L33.4831 26.48L33.4831 26.4801L33.4831 26.4801L33.4831 26.4801C33.4407 26.5143 33.3988 26.5482 33.3564 26.5755C33.3077 26.6068 33.2497 26.625 33.1875 26.625H23.8125C22.9496 26.625 22.25 27.3246 22.25 28.1875C22.25 29.0504 22.9496 29.75 23.8125 29.75H28.1875C28.3601 29.75 28.5 29.6101 28.5 29.4375C28.5 29.2649 28.3601 29.125 28.1875 29.125ZM39.75 27.5625H40.7064C40.879 27.5625 41.0189 27.7024 41.0189 27.875C41.0189 28.0476 40.879 28.1875 40.7064 28.1875H39.75C38.8871 28.1875 38.1875 27.4879 38.1875 26.625C38.1875 25.7621 38.8871 25.0625 39.75 25.0625H45.6875C46.2053 25.0625 46.625 24.6428 46.625 24.125C46.625 23.6072 46.2053 23.1875 45.6875 23.1875H41.0663C40.8937 23.1875 40.7538 23.0476 40.7538 22.875C40.7538 22.7024 40.8937 22.5625 41.0663 22.5625H45.6875C46.5504 22.5625 47.25 23.2621 47.25 24.125C47.25 24.9879 46.5504 25.6875 45.6875 25.6875H39.75C39.2322 25.6875 38.8125 26.1072 38.8125 26.625C38.8125 27.1428 39.2322 27.5625 39.75 27.5625ZM42.5625 21.625C42.3899 21.625 42.25 21.7649 42.25 21.9375C42.25 22.1101 42.3899 22.25 42.5625 22.25H45.0625C45.2351 22.25 45.375 22.1101 45.375 21.9375C45.375 21.7649 45.2351 21.625 45.0625 21.625H42.5625ZM31.625 23.8125C31.625 23.6399 31.7649 23.5 31.9375 23.5H34.4375C34.6101 23.5 34.75 23.6399 34.75 23.8125C34.75 23.9851 34.6101 24.125 34.4375 24.125H31.9375C31.7649 24.125 31.625 23.9851 31.625 23.8125ZM24.4375 30.0625C24.2649 30.0625 24.125 30.2024 24.125 30.375C24.125 30.5476 24.2649 30.6875 24.4375 30.6875H26.3125C26.4851 30.6875 26.625 30.5476 26.625 30.375C26.625 30.2024 26.4851 30.0625 26.3125 30.0625H24.4375Z" fill="white"/>
<rect x="0.5" y="0.5" width="71" height="71" rx="23.5" stroke="#004B74"/>
</svg>
