<svg xmlns="http://www.w3.org/2000/svg" viewBox="0 0 200 170" fill="none" aria-hidden="true">
  <!--
    White Lotus logo — 5-petal line art.
    Recreated from the provided mark (file not available on disk).
    White strokes for black UI theme.
  -->
  <g
    fill="none"
    stroke="#ffffff"
    stroke-width="6"
    stroke-linecap="round"
    stroke-linejoin="round"
  >
    <!-- left outer petal -->
    <path d="M100 148 C78 140 48 118 36 88 C52 108 74 128 96 140" />
    <!-- left inner petal -->
    <path d="M100 150 C82 128 64 92 58 52 C70 84 84 118 98 142" />
    <!-- center petal -->
    <path d="M100 154 C90 110 88 58 100 22 C112 58 110 110 100 154" />
    <!-- right inner petal -->
    <path d="M100 150 C118 128 136 92 142 52 C130 84 116 118 102 142" />
    <!-- right outer petal -->
    <path d="M100 148 C122 140 152 118 164 88 C148 108 126 128 104 140" />
  </g>
</svg>
