<svg xmlns="http://www.w3.org/2000/svg" viewBox="0 0 120 100" fill="none" aria-hidden="true">
  <!-- Simple white lotus mark (monochrome) -->
  <path
    fill="#ffffff"
    d="M60 92c-8-6-18-18-26-34-4-8-7-16-8-24 8 4 18 10 28 20 2 12 4 24 6 38z"
    opacity="0.85"
  />
  <path
    fill="#ffffff"
    d="M60 92c8-6 18-18 26-34 4-8 7-16 8-24-8 4-18 10-28 20-2 12-4 24-6 38z"
    opacity="0.85"
  />
  <path
    fill="#f5f5f5"
    d="M60 88c-6-16-8-32-6-48 2-2 4-2 6 0 2 16 0 32-6 48z"
  />
  <path
    fill="#ffffff"
    d="M60 40c-14-12-28-20-40-24 4 14 12 28 22 38 8 6 14 10 18 12 4-2 10-6 18-12 10-10 18-24 22-38-12 4-26 12-40 24z"
  />
  <path
    fill="#e8e8e8"
    d="M60 12c-4 10-6 20-4 32 1 1 3 1 4 0 2-12 0-22-4-32z"
    opacity="0.9"
  />
  <ellipse cx="60" cy="44" rx="6" ry="8" fill="#ffffff" />
</svg>
